<svg xmlns="http://www.w3.org/2000/svg" xmlns:xlink="http://www.w3.org/1999/xlink" width="1366" zoomAndPan="magnify" viewBox="0 0 1024.5 576" height="768" preserveAspectRatio="xMidYMid meet" version="1.0"><defs><filter x="0%" y="0%" width="100%" height="100%" id="0e67df3ce5"><feColorMatrix values="0 0 0 0 1 0 0 0 0 1 0 0 0 0 1 0 0 0 1 0" color-interpolation-filters="sRGB"/></filter><mask id="b0898e97bd"><g filter="url(#0e67df3ce5)"><rect x="-102.45" width="1229.4" fill="#000000" y="-57.6" height="691.2" fill-opacity="0.2863"/></g></mask><clipPath id="6e1ef44e4f"><path d="M 0 0.417969 L 270.828125 0.417969 L 270.828125 44.667969 L 0 44.667969 Z M 0 0.417969 " clip-rule="nonzero"/></clipPath><clipPath id="0138d7e45b"><rect x="0" width="271" y="0" height="46"/></clipPath><clipPath id="1bca090fcc"><path d="M 0 208 L 315 208 L 315 562 L 0 562 Z M 0 208 " clip-rule="nonzero"/></clipPath><clipPath id="7286438815"><path d="M 27.617188 151.382812 L 375.179688 275.316406 L 246.964844 634.890625 L -100.601562 510.957031 Z M 27.617188 151.382812 " clip-rule="nonzero"/></clipPath><clipPath id="920533b34e"><path d="M 27.617188 151.382812 L 375.179688 275.316406 L 246.964844 634.890625 L -100.601562 510.957031 Z M 27.617188 151.382812 " clip-rule="nonzero"/></clipPath><clipPath id="11089128ca"><path d="M 8 282 L 108 282 L 108 443 L 8 443 Z M 8 282 " clip-rule="nonzero"/></clipPath><clipPath id="7a0db1a0e8"><path d="M -30.132812 318.246094 L 107.007812 282.390625 L 143.242188 420.984375 L 6.101562 456.839844 Z M -30.132812 318.246094 " clip-rule="nonzero"/></clipPath><clipPath id="fae8a0590d"><path d="M -30.132812 318.246094 L 107.007812 282.390625 L 143.242188 420.984375 L 6.101562 456.839844 Z M -30.132812 318.246094 " clip-rule="nonzero"/></clipPath><clipPath id="c3429bbb68"><path d="M -30.132812 318.246094 L 107.007812 282.390625 L 143.242188 420.984375 L 6.101562 456.839844 Z M -30.132812 318.246094 " clip-rule="nonzero"/></clipPath><clipPath id="6e16e49c69"><path d="M -22.042969 316.132812 L 107.070312 282.375 L 141.144531 412.703125 L 12.035156 446.460938 Z M -22.042969 316.132812 " clip-rule="nonzero"/></clipPath><clipPath id="d1e2ebfa1f"><path d="M -22.042969 316.132812 L 106.957031 282.40625 L 141.03125 412.734375 L 12.035156 446.460938 Z M -22.042969 316.132812 " clip-rule="nonzero"/></clipPath><clipPath id="8e52af5e50"><path d="M 21 349 L 74 349 L 74 421 L 21 421 Z M 21 349 " clip-rule="nonzero"/></clipPath><clipPath id="125cbad4e7"><path d="M -30.132812 318.246094 L 107.007812 282.390625 L 143.242188 420.984375 L 6.101562 456.839844 Z M -30.132812 318.246094 " clip-rule="nonzero"/></clipPath><clipPath id="539ebb7447"><path d="M -30.132812 318.246094 L 107.007812 282.390625 L 143.242188 420.984375 L 6.101562 456.839844 Z M -30.132812 318.246094 " clip-rule="nonzero"/></clipPath><clipPath id="d970ba271f"><path d="M -30.132812 318.246094 L 107.007812 282.390625 L 143.242188 420.984375 L 6.101562 456.839844 Z M -30.132812 318.246094 " clip-rule="nonzero"/></clipPath><clipPath id="0fe0c8b244"><path d="M 0 319 L 91 319 L 91 451 L 0 451 Z M 0 319 " clip-rule="nonzero"/></clipPath><clipPath id="3fecad585c"><path d="M -30.132812 318.246094 L 107.007812 282.390625 L 143.242188 420.984375 L 6.101562 456.839844 Z M -30.132812 318.246094 " clip-rule="nonzero"/></clipPath><clipPath id="2654f3edc8"><path d="M -30.132812 318.246094 L 107.007812 282.390625 L 143.242188 420.984375 L 6.101562 456.839844 Z M -30.132812 318.246094 " clip-rule="nonzero"/></clipPath><clipPath id="16c412231f"><path d="M -30.132812 318.246094 L 107.007812 282.390625 L 143.242188 420.984375 L 6.101562 456.839844 Z M -30.132812 318.246094 " clip-rule="nonzero"/></clipPath><clipPath id="64c7343959"><path d="M 0 430 L 32 430 L 32 449 L 0 449 Z M 0 430 " clip-rule="nonzero"/></clipPath><clipPath id="e54a04a3c6"><path d="M -30.132812 318.246094 L 107.007812 282.390625 L 143.242188 420.984375 L 6.101562 456.839844 Z M -30.132812 318.246094 " clip-rule="nonzero"/></clipPath><clipPath id="627ab3c9ea"><path d="M -30.132812 318.246094 L 107.007812 282.390625 L 143.242188 420.984375 L 6.101562 456.839844 Z M -30.132812 318.246094 " clip-rule="nonzero"/></clipPath><clipPath id="b911a1cb20"><path d="M -30.132812 318.246094 L 107.007812 282.390625 L 143.242188 420.984375 L 6.101562 456.839844 Z M -30.132812 318.246094 " clip-rule="nonzero"/></clipPath><clipPath id="9e6dd2211f"><path d="M 6 403 L 52 403 L 52 433 L 6 433 Z M 6 403 " clip-rule="nonzero"/></clipPath><clipPath id="87b7aa87fd"><path d="M -30.132812 318.246094 L 107.007812 282.390625 L 143.242188 420.984375 L 6.101562 456.839844 Z M -30.132812 318.246094 " clip-rule="nonzero"/></clipPath><clipPath id="a7130ce5a9"><path d="M -30.132812 318.246094 L 107.007812 282.390625 L 143.242188 420.984375 L 6.101562 456.839844 Z M -30.132812 318.246094 " clip-rule="nonzero"/></clipPath><clipPath id="ddce35614e"><path d="M -30.132812 318.246094 L 107.007812 282.390625 L 143.242188 420.984375 L 6.101562 456.839844 Z M -30.132812 318.246094 " clip-rule="nonzero"/></clipPath><clipPath id="561ef344f4"><path d="M 53 347 L 75 347 L 75 370 L 53 370 Z M 53 347 " clip-rule="nonzero"/></clipPath><clipPath id="1b7a2041ac"><path d="M -30.132812 318.246094 L 107.007812 282.390625 L 143.242188 420.984375 L 6.101562 456.839844 Z M -30.132812 318.246094 " clip-rule="nonzero"/></clipPath><clipPath id="b76912500a"><path d="M -30.132812 318.246094 L 107.007812 282.390625 L 143.242188 420.984375 L 6.101562 456.839844 Z M -30.132812 318.246094 " clip-rule="nonzero"/></clipPath><clipPath id="68a3d8dfa2"><path d="M -30.132812 318.246094 L 107.007812 282.390625 L 143.242188 420.984375 L 6.101562 456.839844 Z M -30.132812 318.246094 " clip-rule="nonzero"/></clipPath><mask id="05ac567c00"><g filter="url(#0e67df3ce5)"><rect x="-102.45" width="1229.4" fill="#000000" y="-57.6" height="691.2" fill-opacity="0.8392"/></g></mask><clipPath id="bcd6eb3759"><path d="M 8 18 L 149 18 L 149 145 L 8 145 Z M 8 18 " clip-rule="nonzero"/></clipPath><clipPath id="13ba3ae9a0"><path d="M 13.988281 0.414062 L 155.015625 14.703125 L 141.480469 148.269531 L 0.453125 133.980469 Z M 13.988281 0.414062 " clip-rule="nonzero"/></clipPath><clipPath id="c31ca8650f"><path d="M 13.988281 0.414062 L 155.015625 14.703125 L 141.480469 148.269531 L 0.453125 133.980469 Z M 13.988281 0.414062 " clip-rule="nonzero"/></clipPath><clipPath id="26785eaa8b"><path d="M 13.988281 0.414062 L 155.015625 14.703125 L 141.480469 148.269531 L 0.453125 133.980469 Z M 13.988281 0.414062 " clip-rule="nonzero"/></clipPath><clipPath id="50a203dba8"><path d="M 8 22 L 138 22 L 138 145 L 8 145 Z M 8 22 " clip-rule="nonzero"/></clipPath><clipPath id="c42f3ac38e"><path d="M 13.988281 0.414062 L 155.015625 14.703125 L 141.480469 148.269531 L 0.453125 133.980469 Z M 13.988281 0.414062 " clip-rule="nonzero"/></clipPath><clipPath id="ac29f4d6b1"><path d="M 13.988281 0.414062 L 155.015625 14.703125 L 141.480469 148.269531 L 0.453125 133.980469 Z M 13.988281 0.414062 " clip-rule="nonzero"/></clipPath><clipPath id="eb49dd8858"><path d="M 13.988281 0.414062 L 155.015625 14.703125 L 141.480469 148.269531 L 0.453125 133.980469 Z M 13.988281 0.414062 " clip-rule="nonzero"/></clipPath><clipPath id="42058a57c2"><path d="M 45 5 L 123 5 L 123 48 L 45 48 Z M 45 5 " clip-rule="nonzero"/></clipPath><clipPath id="e92fc9633a"><path d="M 13.988281 0.414062 L 155.015625 14.703125 L 141.480469 148.269531 L 0.453125 133.980469 Z M 13.988281 0.414062 " clip-rule="nonzero"/></clipPath><clipPath id="258734ccf7"><path d="M 13.988281 0.414062 L 155.015625 14.703125 L 141.480469 148.269531 L 0.453125 133.980469 Z M 13.988281 0.414062 " clip-rule="nonzero"/></clipPath><clipPath id="b57d484643"><path d="M 13.988281 0.414062 L 155.015625 14.703125 L 141.480469 148.269531 L 0.453125 133.980469 Z M 13.988281 0.414062 " clip-rule="nonzero"/></clipPath><clipPath id="81b251027d"><path d="M 45 24 L 108 24 L 108 107 L 45 107 Z M 45 24 " clip-rule="nonzero"/></clipPath><clipPath id="d6233338b5"><path d="M 13.988281 0.414062 L 155.015625 14.703125 L 141.480469 148.269531 L 0.453125 133.980469 Z M 13.988281 0.414062 " clip-rule="nonzero"/></clipPath><clipPath id="cae3ff0913"><path d="M 13.988281 0.414062 L 155.015625 14.703125 L 141.480469 148.269531 L 0.453125 133.980469 Z M 13.988281 0.414062 " clip-rule="nonzero"/></clipPath><clipPath id="4c5c37e40f"><path d="M 13.988281 0.414062 L 155.015625 14.703125 L 141.480469 148.269531 L 0.453125 133.980469 Z M 13.988281 0.414062 " clip-rule="nonzero"/></clipPath><clipPath id="f7776b4a70"><path d="M 53 70 L 74 70 L 74 99 L 53 99 Z M 53 70 " clip-rule="nonzero"/></clipPath><clipPath id="58ff6b89d8"><path d="M 13.988281 0.414062 L 155.015625 14.703125 L 141.480469 148.269531 L 0.453125 133.980469 Z M 13.988281 0.414062 " clip-rule="nonzero"/></clipPath><clipPath id="1b65fe5ed6"><path d="M 13.988281 0.414062 L 155.015625 14.703125 L 141.480469 148.269531 L 0.453125 133.980469 Z M 13.988281 0.414062 " clip-rule="nonzero"/></clipPath><clipPath id="0a31f8d6bb"><path d="M 13.988281 0.414062 L 155.015625 14.703125 L 141.480469 148.269531 L 0.453125 133.980469 Z M 13.988281 0.414062 " clip-rule="nonzero"/></clipPath><clipPath id="431dcdc5d5"><path d="M 45 21 L 123 21 L 123 47 L 45 47 Z M 45 21 " clip-rule="nonzero"/></clipPath><clipPath id="c36b720ebd"><path d="M 13.988281 0.414062 L 155.015625 14.703125 L 141.480469 148.269531 L 0.453125 133.980469 Z M 13.988281 0.414062 " clip-rule="nonzero"/></clipPath><clipPath id="28b01b764a"><path d="M 13.988281 0.414062 L 155.015625 14.703125 L 141.480469 148.269531 L 0.453125 133.980469 Z M 13.988281 0.414062 " clip-rule="nonzero"/></clipPath><clipPath id="5440f5fe46"><path d="M 13.988281 0.414062 L 155.015625 14.703125 L 141.480469 148.269531 L 0.453125 133.980469 Z M 13.988281 0.414062 " clip-rule="nonzero"/></clipPath><clipPath id="3112dac548"><rect x="0" width="156" y="0" height="149"/></clipPath><clipPath id="9a5a377f64"><path d="M 45.644531 400.507812 L 189.644531 400.507812 L 189.644531 537 L 45.644531 537 Z M 45.644531 400.507812 " clip-rule="nonzero"/></clipPath><mask id="402b4f8b23"><g filter="url(#0e67df3ce5)"><rect x="-102.45" width="1229.4" fill="#000000" y="-57.6" height="691.2" fill-opacity="0.149"/></g></mask><clipPath id="152bdd44c1"><path d="M 0.605469 0.0546875 L 83.601562 0.0546875 L 83.601562 89 L 0.605469 89 Z M 0.605469 0.0546875 " clip-rule="nonzero"/></clipPath><clipPath id="1b2abc0c67"><rect x="0" width="84" y="0" height="90"/></clipPath><mask id="0a83c6d11d"><g filter="url(#0e67df3ce5)"><rect x="-102.45" width="1229.4" fill="#000000" y="-57.6" height="691.2" fill-opacity="0.2863"/></g></mask><clipPath id="67e7df7917"><path d="M 0.105469 0.589844 L 256 0.589844 L 256 44.839844 L 0.105469 44.839844 Z M 0.105469 0.589844 " clip-rule="nonzero"/></clipPath><clipPath id="3313956b06"><rect x="0" width="256" y="0" height="46"/></clipPath></defs><g mask="url(#b0898e97bd)"><g transform="matrix(1, 0, 0, 1, 0, 129)"><g clip-path="url(#0138d7e45b)"><g clip-path="url(#6e1ef44e4f)"><path fill="#000000" d="M 30.8125 39.199219 L 36.164062 33.8125 L -22.90625 33.8125 C -23.195312 35.148438 -24.375 36.15625 -25.792969 36.15625 C -27.421875 36.15625 -28.738281 34.824219 -28.738281 33.183594 C -28.738281 31.550781 -27.421875 30.21875 -25.792969 30.21875 C -24.375 30.21875 -23.195312 31.222656 -22.90625 32.5625 L 37.40625 32.5625 L 53.144531 16.726562 L 53.582031 16.542969 L 101.167969 16.542969 L 101.472656 16.628906 L 118.613281 26.589844 L 148.851562 26.589844 L 187.699219 4.011719 L 156.269531 4.011719 L 135.132812 16.292969 C 135.222656 16.582031 135.277344 16.886719 135.277344 17.203125 C 135.277344 18.839844 133.953125 20.167969 132.328125 20.167969 C 130.699219 20.167969 129.375 18.839844 129.375 17.203125 C 129.375 15.5625 130.699219 14.234375 132.328125 14.234375 C 133.191406 14.234375 133.976562 14.617188 134.515625 15.210938 L 155.792969 2.847656 L 156.101562 2.761719 L 264.890625 2.761719 C 265.175781 1.425781 266.355469 0.417969 267.777344 0.417969 C 269.40625 0.417969 270.722656 1.746094 270.722656 3.382812 C 270.722656 5.023438 269.40625 6.351562 267.777344 6.351562 C 266.355469 6.351562 265.175781 5.351562 264.890625 4.011719 L 190.171875 4.011719 L 171.820312 14.675781 L 238.636719 14.675781 C 238.925781 13.335938 240.105469 12.332031 241.523438 12.332031 C 243.152344 12.332031 244.472656 13.664062 244.472656 15.296875 C 244.472656 16.9375 243.152344 18.269531 241.523438 18.269531 C 240.113281 18.269531 238.925781 17.261719 238.636719 15.925781 L 169.671875 15.925781 L 149.328125 27.753906 L 149.015625 27.835938 L 120.765625 27.835938 L 136.414062 36.933594 L 197.167969 36.933594 C 197.457031 35.59375 198.636719 34.589844 200.054688 34.589844 C 201.683594 34.589844 203.003906 35.914062 203.003906 37.554688 C 203.003906 39.195312 201.683594 40.519531 200.054688 40.519531 C 198.636719 40.519531 197.457031 39.519531 197.167969 38.179688 L 136.25 38.179688 L 135.941406 38.097656 L 118.144531 27.753906 L 111.414062 23.839844 L 80.257812 23.839844 L 98.339844 34.347656 C 98.878906 33.746094 99.65625 33.371094 100.527344 33.371094 C 102.15625 33.371094 103.472656 34.695312 103.472656 36.335938 C 103.472656 37.976562 102.15625 39.304688 100.527344 39.304688 C 98.898438 39.304688 97.578125 37.976562 97.578125 36.335938 C 97.578125 36.015625 97.628906 35.710938 97.71875 35.425781 L 77.785156 23.839844 L 47.828125 23.839844 L 31.691406 40.082031 C 31.984375 40.542969 32.160156 41.097656 32.160156 41.695312 C 32.160156 43.328125 30.839844 44.664062 29.210938 44.664062 C 27.582031 44.664062 26.265625 43.328125 26.265625 41.695312 C 26.265625 40.054688 27.582031 38.722656 29.210938 38.722656 C 29.804688 38.722656 30.351562 38.898438 30.8125 39.199219 Z M 109.265625 22.589844 L 101.003906 17.792969 L 53.839844 17.792969 L 49.066406 22.589844 Z M 109.265625 22.589844 " fill-opacity="1" fill-rule="nonzero"/></g></g></g></g><g clip-path="url(#1bca090fcc)"><g clip-path="url(#7286438815)"><g clip-path="url(#920533b34e)"><path fill="#79a1b8" d="M 312.335938 444.550781 C 318.261719 406.449219 309.617188 368.0625 296.859375 332.164062 C 285.578125 300.496094 269.65625 270.078125 245.945312 245.90625 C 234.488281 234.164062 221.042969 222.359375 205.828125 215.964844 C 190.683594 209.597656 173.992188 207.113281 157.609375 208.285156 C 141.015625 209.378906 124.457031 214.433594 110.324219 223.09375 C 94.269531 232.84375 82.15625 247.144531 69.835938 261.125 C 41.890625 292.910156 7.457031 318.027344 -20.769531 349.710938 C -45.753906 377.714844 -65.570312 412.71875 -64.066406 451.457031 C -62.570312 488.421875 -38.871094 517.824219 -7.78125 536.003906 C 27.820312 556.675781 69.984375 563.007812 110.691406 561 C 131.101562 560.058594 151.367188 557.046875 171.453125 553.167969 C 191.300781 549.285156 211.296875 545.214844 230.632812 539.375 C 248.15625 534.097656 264.625 526.347656 277.835938 513.488281 C 290.410156 501.289062 299.832031 485.953125 305.863281 469.484375 C 308.867188 461.289062 310.890625 452.902344 312.335938 444.550781 " fill-opacity="1" fill-rule="nonzero"/></g></g></g><g clip-path="url(#11089128ca)"><g clip-path="url(#7a0db1a0e8)"><g clip-path="url(#fae8a0590d)"><g clip-path="url(#c3429bbb68)"><g clip-path="url(#6e16e49c69)"><g clip-path="url(#d1e2ebfa1f)"><path fill="#e4e4e3" d="M 106.554688 282.5625 C 104.570312 284.8125 91.617188 306.933594 88.886719 311.78125 C 88.539062 312.402344 88.191406 313.019531 87.84375 313.640625 C 86.566406 315.910156 85.289062 318.183594 84.011719 320.453125 L 86.058594 321.457031 C 90.628906 312.996094 105.855469 285.1875 107.007812 282.863281 C 107.148438 282.578125 106.765625 282.320312 106.554688 282.5625 Z M 94.085938 334.355469 C 92.648438 331.933594 90.339844 330.191406 88.089844 328.507812 C 86.191406 327.089844 84.292969 325.671875 82.394531 324.253906 C 81.054688 323.253906 79.707031 322.246094 78.1875 321.554688 C 75.222656 320.195312 71.660156 319.621094 68.433594 320.046875 C 66.824219 320.257812 65.410156 321.226562 64.546875 322.605469 C 55.921875 336.40625 47.410156 350.75 39.839844 365.199219 C 33.1875 377.914062 24.699219 393.050781 17.484375 405.730469 C 16.835938 406.875 16.6875 408.246094 17.097656 409.496094 C 18.039062 412.351562 19.953125 414.886719 22.246094 416.867188 C 25.105469 419.339844 28.53125 421.054688 31.960938 422.636719 C 35.203125 424.132812 38.953125 425.53125 42.265625 424.539062 C 42.933594 424.339844 43.507812 423.898438 43.878906 423.304688 C 45.101562 421.339844 46.449219 419.210938 47.632812 417.296875 C 49.027344 415.046875 50.117188 412.601562 51.640625 410.4375 C 52.433594 409.304688 64.347656 388.40625 69.570312 380.804688 C 72.066406 377.167969 74.632812 373.226562 76.808594 369.382812 C 77.398438 368.339844 77.949219 367.277344 78.457031 366.195312 C 79.535156 363.894531 80.746094 361.652344 81.992188 359.4375 C 85.835938 352.609375 89.671875 345.769531 93.996094 339.242188 C 94.96875 337.773438 94.988281 335.871094 94.085938 334.355469 Z M 34.617188 431.105469 C 33.878906 432.625 33.054688 434.199219 32.644531 434.792969 C 30.917969 437.304688 29.21875 439.90625 27.492188 442.414062 C 26.148438 442.753906 24.761719 443.09375 23.386719 442.914062 C 22.675781 442.820312 21.988281 442.589844 21.316406 442.332031 C 17.222656 440.761719 13.511719 438.191406 10.601562 434.90625 C 9.519531 433.683594 7.671875 432.0625 8.367188 430.585938 C 10.25 426.601562 12.332031 422.714844 14.605469 418.941406 L 34.617188 431.105469 " fill-opacity="1" fill-rule="nonzero"/></g></g></g></g></g></g><g clip-path="url(#8e52af5e50)"><g clip-path="url(#125cbad4e7)"><g clip-path="url(#539ebb7447)"><g clip-path="url(#d970ba271f)"><path fill="#c3d7df" d="M 73.691406 368.003906 C 67.828125 378.371094 64.09375 382.605469 58.539062 392.460938 C 55.488281 397.875 52.910156 403.546875 49.878906 408.972656 C 47.722656 412.832031 45.589844 416.734375 42.996094 420.316406 C 41.207031 420.710938 39.335938 420.511719 37.546875 420.125 C 31.871094 418.894531 26.632812 415.710938 22.917969 411.234375 C 21.910156 410.019531 20.964844 408.542969 21.1875 406.980469 C 21.355469 405.765625 21.933594 404.621094 22.535156 403.554688 C 32.410156 386.035156 45.039062 367.355469 54.332031 349.519531 C 56.09375 350.644531 57.847656 352.058594 59.347656 353.515625 C 60.476562 354.613281 61.527344 355.800781 62.789062 356.738281 C 65.074219 358.429688 68.054688 359.316406 69.683594 361.648438 C 70.980469 363.507812 71.816406 366.730469 73.691406 368.003906 " fill-opacity="1" fill-rule="nonzero"/></g></g></g></g><g clip-path="url(#0fe0c8b244)"><g clip-path="url(#3fecad585c)"><g clip-path="url(#2654f3edc8)"><g clip-path="url(#16c412231f)"><path fill="#6a739c" d="M 63.449219 335.234375 C 61.707031 334.722656 60.101562 333.773438 58.804688 332.496094 L 58.472656 332.832031 C 59.824219 334.164062 63.449219 335.234375 63.449219 335.234375 Z M 56.394531 336.320312 L 56.050781 336.640625 C 56.914062 337.578125 58.011719 338.28125 59.222656 338.667969 C 59.222656 338.667969 57.203125 337.199219 56.394531 336.320312 Z M 54.414062 339.746094 L 54.066406 340.0625 C 54.894531 340.980469 55.953125 341.667969 57.125 342.058594 C 57.125 342.058594 55.191406 340.601562 54.414062 339.746094 Z M 52.257812 343.222656 L 51.910156 343.539062 C 52.695312 344.410156 53.671875 345.121094 54.738281 345.605469 C 54.738281 345.605469 53 344.046875 52.257812 343.222656 Z M 49.808594 347.582031 L 49.480469 347.921875 C 51.507812 349.902344 53.851562 351.480469 56.441406 352.613281 C 56.441406 352.613281 51.796875 349.523438 49.808594 347.582031 Z M 47.140625 353.027344 L 46.75 353.292969 C 47.507812 354.398438 48.542969 355.300781 49.742188 355.894531 C 49.742188 355.894531 47.847656 354.066406 47.140625 353.027344 Z M 43.984375 358.058594 L 43.695312 358.429688 C 45.203125 359.605469 46.863281 360.570312 48.632812 361.296875 C 48.632812 361.296875 45.457031 359.207031 43.984375 358.058594 Z M 41.160156 363.210938 L 40.796875 363.507812 C 41.765625 364.707031 43.109375 365.605469 44.582031 366.046875 C 44.582031 366.046875 42.070312 364.335938 41.160156 363.210938 Z M 37.789062 369.234375 L 37.414062 369.519531 C 38.503906 370.953125 40.039062 372.058594 41.738281 372.632812 C 41.738281 372.632812 38.820312 370.59375 37.789062 369.234375 Z M 42.878906 379.316406 C 41.011719 378.148438 39.199219 376.84375 37.496094 375.445312 C 36.710938 374.796875 35.914062 374.085938 35.585938 373.148438 L 35.140625 373.304688 C 35.511719 374.355469 36.359375 375.117188 37.199219 375.808594 C 38.917969 377.222656 42.878906 379.316406 42.878906 379.316406 Z M 36.503906 382.296875 C 35.132812 381.417969 33.835938 380.410156 32.640625 379.304688 L 32.320312 379.648438 C 33.535156 380.777344 36.503906 382.296875 36.503906 382.296875 Z M 29.082031 385.308594 L 28.632812 385.441406 C 29.140625 387.164062 30.488281 388.648438 32.152344 389.3125 C 32.152344 389.3125 29.550781 386.894531 29.082031 385.308594 Z M 24.304688 393.835938 L 23.941406 394.132812 C 25.015625 395.46875 26.292969 396.613281 27.734375 397.539062 C 27.734375 397.539062 25.351562 395.132812 24.304688 393.835938 Z M 88.644531 324.859375 C 88.71875 323.859375 88.324219 322.882812 87.578125 322.214844 C 86.253906 321.023438 84.765625 320.273438 82.921875 319.671875 C 82.433594 319.511719 81.910156 319.382812 81.410156 319.507812 C 80.925781 319.628906 80.53125 319.976562 80.160156 320.316406 C 77.953125 322.335938 75.910156 324.386719 73.816406 326.523438 C 73.585938 327.761719 74.265625 329.003906 75.125 329.925781 C 76.257812 331.136719 77.710938 331.988281 79.144531 332.820312 C 80.246094 333.460938 81.371094 334.109375 82.605469 334.417969 C 83.84375 334.722656 85.238281 334.644531 86.28125 333.910156 C 86.910156 332 87.527344 330.082031 88.15625 328.171875 C 88.492188 327.15625 88.558594 325.984375 88.644531 324.859375 Z M 84.964844 338.90625 C 76.859375 336.71875 69.679688 330.882812 65.480469 323.589844 C 65.347656 324.550781 65.835938 325.472656 66.351562 326.292969 C 70.703125 333.242188 78.078125 338.21875 86.136719 339.636719 C 87.566406 339.886719 89.105469 340.019531 90.414062 339.394531 C 88.609375 340.066406 86.828125 339.40625 84.964844 338.90625 Z M 48.210938 416.324219 C 48.023438 416.652344 47.832031 416.976562 47.632812 417.296875 C 46.449219 419.210938 45.101562 421.339844 43.878906 423.304688 C 43.507812 423.898438 42.933594 424.339844 42.265625 424.539062 C 38.953125 425.53125 35.203125 424.132812 31.960938 422.636719 C 28.53125 421.054688 25.105469 419.339844 22.246094 416.867188 C 19.953125 414.886719 18.039062 412.351562 17.097656 409.496094 C 16.6875 408.246094 16.835938 406.875 17.484375 405.730469 C 18.503906 403.941406 19.546875 402.101562 20.609375 400.226562 L 20.441406 400.128906 C 17.234375 399.035156 13.824219 398.53125 10.4375 398.652344 C 9.722656 398.679688 9 398.734375 8.320312 398.957031 C 6.335938 399.617188 5.050781 401.695312 4.859375 403.785156 C 4.671875 405.875 5.402344 407.949219 6.421875 409.785156 C 8.242188 413.070312 10.960938 415.757812 13.777344 418.234375 C 14.046875 418.472656 14.324219 418.707031 14.609375 418.941406 L 34.605469 431.097656 C 37.804688 432.488281 41.203125 433.234375 44.71875 433.800781 C 47.25 434.203125 49.886719 434.390625 52.335938 433.636719 C 53.429688 433.300781 54.832031 431.792969 55.476562 430.847656 C 56.773438 428.9375 54.75 419.820312 48.210938 416.324219 Z M 29.988281 438.726562 C 31.742188 440.734375 33.027344 443.148438 33.699219 445.730469 C 33.972656 446.789062 34.113281 448.015625 33.441406 448.871094 C 33.109375 449.292969 32.621094 449.558594 32.125 449.753906 C 30.007812 450.578125 27.625 450.21875 25.410156 449.695312 C 23.085938 449.144531 20.804688 448.421875 18.582031 447.535156 C 17.367188 447.050781 16.171875 446.519531 15.027344 445.878906 C 14.058594 445.335938 13.132812 444.722656 12.207031 444.109375 C 11.074219 443.355469 9.9375 442.605469 8.804688 441.851562 C 7.433594 440.9375 6.054688 440.023438 4.785156 438.96875 C 3.773438 438.121094 2.832031 437.1875 1.976562 436.179688 C 0.984375 435.007812 0.09375 433.695312 -0.257812 432.199219 C -0.613281 430.703125 -0.347656 428.992188 0.726562 427.894531 C 1.316406 427.296875 2.09375 426.917969 2.894531 426.664062 C 5.144531 425.945312 7.667969 426.132812 9.789062 427.179688 L 9.984375 427.292969 C 9.433594 428.382812 8.890625 429.480469 8.367188 430.585938 C 7.671875 432.0625 9.519531 433.683594 10.601562 434.90625 C 13.511719 438.191406 17.222656 440.761719 21.316406 442.332031 C 21.988281 442.589844 22.675781 442.820312 23.386719 442.914062 C 24.761719 443.09375 26.148438 442.753906 27.492188 442.414062 C 28.328125 441.199219 29.15625 439.964844 29.988281 438.726562 " fill-opacity="1" fill-rule="nonzero"/></g></g></g></g><g clip-path="url(#64c7343959)"><g clip-path="url(#e54a04a3c6)"><g clip-path="url(#627ab3c9ea)"><g clip-path="url(#b911a1cb20)"><path fill="#aac1dd" d="M 11.617188 441.011719 C 7.40625 438.082031 2.90625 434.765625 0.972656 430.007812 C 1.761719 434.09375 5.023438 437.222656 8.347656 439.71875 C 11.542969 442.113281 14.960938 444.207031 18.546875 445.957031 C 20.519531 446.917969 22.5625 447.785156 24.71875 448.191406 C 26.875 448.601562 29.167969 448.527344 31.183594 447.65625 C 27.699219 448.296875 24.136719 447.542969 20.835938 446.253906 C 17.539062 444.964844 14.523438 443.039062 11.617188 441.011719 " fill-opacity="1" fill-rule="nonzero"/></g></g></g></g><g clip-path="url(#9e6dd2211f)"><g clip-path="url(#87b7aa87fd)"><g clip-path="url(#a7130ce5a9)"><g clip-path="url(#ddce35614e)"><path fill="#aac1dd" d="M 13.171875 414.046875 C 10.078125 411.449219 8.449219 407.464844 6.738281 403.796875 C 7.589844 408.082031 9.886719 412.066406 13.164062 414.945312 C 14.265625 415.914062 15.46875 416.757812 16.671875 417.601562 C 18.519531 418.894531 20.371094 420.191406 22.21875 421.484375 C 23.832031 422.613281 25.449219 423.746094 27.140625 424.75 C 31.25 427.195312 35.761719 428.871094 40.246094 430.53125 C 43.183594 431.621094 47.882812 432.378906 51.082031 432.0625 C 48.5625 431.953125 41.757812 430.625 36.410156 428.261719 C 27.816406 424.460938 18.023438 418.125 13.171875 414.046875 " fill-opacity="1" fill-rule="nonzero"/></g></g></g></g><g clip-path="url(#561ef344f4)"><g clip-path="url(#1b7a2041ac)"><g clip-path="url(#b76912500a)"><g clip-path="url(#68a3d8dfa2)"><path fill="#aac1dd" d="M 74.320312 364.0625 C 73.890625 362.761719 72.761719 361.84375 71.792969 360.871094 C 68.429688 357.484375 66.621094 352.730469 63.046875 349.566406 C 61.671875 348.347656 59.964844 347.367188 58.132812 347.351562 C 55.675781 347.335938 54.222656 348.902344 53.902344 350.847656 C 55.296875 351.851562 56.441406 352.613281 56.441406 352.613281 C 55.546875 352.21875 54.679688 351.773438 53.847656 351.273438 C 53.78125 352.136719 53.921875 353.046875 54.289062 353.917969 C 56.367188 358.84375 62.996094 360.257812 65.738281 364.839844 C 66.691406 366.433594 67.226562 368.453125 68.847656 369.355469 C 69.992188 369.996094 71.492188 369.863281 72.582031 369.128906 C 73.671875 368.398438 74.347656 367.128906 74.488281 365.820312 C 74.546875 365.230469 74.507812 364.625 74.320312 364.0625 " fill-opacity="1" fill-rule="nonzero"/></g></g></g></g><g mask="url(#05ac567c00)"><g transform="matrix(1, 0, 0, 1, 112, 272)"><g clip-path="url(#3112dac548)"><g clip-path="url(#bcd6eb3759)"><g clip-path="url(#13ba3ae9a0)"><g clip-path="url(#c31ca8650f)"><g clip-path="url(#26785eaa8b)"><path fill="#1f4a7a" d="M 143.832031 122.371094 C 143.171875 128.636719 138.167969 133.753906 134.730469 135.804688 C 128.730469 139.375 123.980469 142.671875 117.183594 144.277344 C 115.8125 144.605469 111.710938 144.933594 110.390625 144.429688 C 110.390625 144.429688 110.386719 144.425781 110.382812 144.425781 C 108.4375 144.832031 106.355469 144.308594 104.40625 143.769531 C 80.746094 137.261719 57.417969 129.527344 34.550781 120.617188 C 28.90625 118.414062 23.210938 116.101562 18.363281 112.464844 C 13.507812 108.832031 9.511719 103.679688 8.507812 97.695312 C 8 94.683594 8.261719 91.597656 8.523438 88.550781 C 9.589844 76.238281 10.65625 63.921875 11.722656 51.609375 C 12.300781 44.957031 11.253906 34.742188 18.136719 31.171875 C 18.121094 31.152344 18.109375 31.132812 18.09375 31.117188 C 21.53125 29.503906 26.167969 26.820312 29.609375 25.210938 C 36.175781 22.136719 42.933594 19.015625 50.164062 18.515625 C 53.394531 18.292969 56.632812 18.601562 59.851562 18.980469 C 86.367188 22.121094 112.535156 29.75 135.90625 42.675781 C 147.066406 48.84375 149.074219 61.167969 148.558594 66.242188 C 146.46875 86.859375 146.003906 101.769531 143.832031 122.371094 Z M 143.832031 122.371094 " fill-opacity="1" fill-rule="nonzero"/></g></g></g></g><g clip-path="url(#50a203dba8)"><g clip-path="url(#c42f3ac38e)"><g clip-path="url(#ac29f4d6b1)"><g clip-path="url(#eb49dd8858)"><path fill="#337096" d="M 123.214844 75.921875 C 123.082031 96.308594 122.894531 117.0625 116.757812 136.507812 C 115.777344 139.628906 114.300781 143.0625 111.230469 144.1875 C 109.054688 144.984375 106.640625 144.386719 104.410156 143.769531 C 80.746094 137.261719 57.421875 129.527344 34.554688 120.617188 C 28.910156 118.414062 23.214844 116.101562 18.363281 112.464844 C 13.511719 108.832031 9.515625 103.679688 8.507812 97.695312 C 8 94.683594 8.265625 91.597656 8.527344 88.550781 C 9.59375 76.238281 10.660156 63.921875 11.726562 51.609375 C 12.375 44.113281 10.964844 32.097656 21.15625 30.152344 C 23.480469 29.707031 25.863281 30.242188 28.164062 30.769531 C 55.726562 37.113281 83.570312 43.550781 108.964844 56.011719 C 114.65625 58.804688 120.695312 62.472656 122.53125 68.554688 C 123.242188 70.929688 123.234375 73.445312 123.214844 75.921875 Z M 137.203125 81.878906 C 137.902344 74.960938 138.457031 62.761719 135.988281 57.761719 C 133.523438 52.757812 129.570312 48.851562 124.492188 46.5625 C 109.808594 39.945312 92.769531 33.558594 77.851562 29.25 C 50.742188 21.417969 50.542969 22.023438 37.042969 24.09375 C 48.722656 22.484375 60.546875 25.742188 71.929688 28.96875 C 90.730469 34.300781 109.761719 39.730469 126.628906 49.609375 C 130.148438 51.671875 137.789062 57.695312 136.667969 68.769531 C 134.933594 85.882812 134.105469 104.164062 131.15625 121.105469 C 130.121094 127.050781 128.726562 133.355469 124.398438 137.558594 C 126.226562 137.371094 129.152344 133.742188 130.449219 130.144531 C 133.535156 121.585938 136.441406 89.417969 137.203125 81.878906 Z M 37.042969 24.09375 C 36.621094 24.152344 36.199219 24.214844 35.773438 24.289062 C 36.210938 24.222656 36.632812 24.160156 37.042969 24.09375 Z M 37.042969 24.09375 " fill-opacity="1" fill-rule="nonzero"/></g></g></g></g><g clip-path="url(#42058a57c2)"><g clip-path="url(#e92fc9633a)"><g clip-path="url(#258734ccf7)"><g clip-path="url(#b57d484643)"><path fill="#392823" d="M 103.675781 41.21875 C 103.976562 41.644531 104.121094 42.203125 103.957031 42.699219 C 103.777344 43.253906 103.257812 43.621094 102.757812 43.921875 C 102.570312 44.03125 102.378906 44.140625 102.167969 44.175781 C 102.011719 44.203125 101.847656 44.1875 101.6875 44.167969 C 100.027344 43.96875 98.34375 43.585938 96.96875 42.628906 C 93.597656 40.285156 93.765625 35.019531 94.003906 30.507812 C 94.117188 28.386719 94.230469 26.269531 94.34375 24.148438 C 94.453125 22.066406 94.460938 19.710938 92.96875 18.261719 C 92.050781 17.371094 90.738281 17.027344 89.496094 16.722656 C 86.273438 15.929688 83.050781 15.132812 79.832031 14.335938 C 78.367188 13.976562 76.90625 13.617188 75.441406 13.253906 C 72.519531 12.535156 69.589844 11.8125 66.636719 11.230469 C 65.953125 11.097656 65.222656 10.972656 64.585938 11.25 C 63.507812 11.722656 63.191406 13.074219 63.027344 14.238281 C 62.601562 17.238281 62.28125 20.253906 62.0625 23.273438 C 61.949219 24.785156 61.863281 26.300781 61.804688 27.8125 C 61.753906 29.046875 61.429688 32.238281 59.019531 31.855469 C 56.355469 31.4375 56.09375 31.382812 52.703125 30.339844 C 52.15625 30.171875 51.636719 29.789062 51.40625 29.261719 C 51.128906 28.617188 51.402344 27.878906 51.730469 27.257812 C 52.183594 26.394531 52.832031 25.527344 53.78125 25.296875 C 54.472656 25.132812 54.636719 25.367188 55.292969 25.574219 C 55.621094 25.679688 57.046875 26.0625 57.308594 24.257812 C 57.40625 23.59375 57.351562 22.914062 57.382812 22.242188 C 57.445312 20.757812 57.53125 19.277344 57.617188 17.792969 C 57.773438 15.261719 58.808594 8.34375 59.25 7.554688 C 59.890625 6.410156 61.199219 5.765625 62.5 5.613281 C 63.796875 5.460938 65.105469 5.722656 66.382812 6.007812 C 68.339844 6.445312 70.277344 6.945312 72.21875 7.445312 C 78.242188 8.992188 84.269531 10.542969 90.296875 12.089844 C 92.960938 12.773438 95.804688 13.570312 97.574219 15.683594 C 99.132812 17.542969 99.554688 20.089844 99.71875 22.511719 C 99.871094 24.773438 99.265625 32.839844 99.070312 35.097656 C 98.9375 36.679688 98.800781 38.507812 99.949219 39.605469 C 100.472656 40.109375 101.316406 40.21875 101.992188 40.496094 C 102.664062 40.765625 103.257812 40.632812 103.675781 41.21875 Z M 54.496094 23.417969 C 54.675781 23.269531 54.859375 23.117188 54.984375 22.917969 C 55.191406 22.589844 55.148438 22.214844 55.160156 21.828125 C 54.222656 21.675781 52.183594 21.34375 51.246094 21.195312 C 50.921875 21.140625 50.589844 21.089844 50.269531 21.144531 C 49.992188 21.191406 49.734375 21.316406 49.476562 21.441406 C 48.023438 22.160156 46.695312 23.023438 45.347656 23.925781 C 45.308594 24.144531 45.273438 24.359375 45.234375 24.574219 C 45.222656 24.632812 45.214844 24.699219 45.242188 24.753906 C 45.277344 24.820312 45.359375 24.84375 45.433594 24.863281 C 45.96875 25.011719 46.503906 25.15625 47.042969 25.300781 C 47.371094 24.914062 47.746094 24.5625 48.214844 24.386719 C 48.980469 24.09375 49.832031 24.3125 50.628906 24.496094 C 50.832031 24.542969 51.039062 24.585938 51.242188 24.628906 C 51.246094 24.628906 51.246094 24.628906 51.25 24.628906 C 51.730469 24.726562 52.214844 24.820312 52.699219 24.898438 C 53.292969 24.402344 53.894531 23.910156 54.496094 23.417969 Z M 122.796875 43.246094 C 121.367188 42.644531 120.535156 42.292969 119.105469 41.691406 C 118.820312 41.574219 118.523438 41.449219 118.21875 41.46875 C 117.921875 41.492188 117.652344 41.640625 117.394531 41.785156 C 115.777344 42.707031 114.15625 43.628906 112.539062 44.550781 C 112.476562 44.890625 112.375 45.265625 112.3125 45.605469 C 112.300781 45.652344 112.292969 45.710938 112.324219 45.753906 C 112.34375 45.785156 112.382812 45.804688 112.417969 45.820312 C 114.121094 46.601562 115.867188 47.289062 117.675781 47.75 C 117.785156 47.777344 117.894531 47.804688 118.007812 47.796875 C 118.179688 47.789062 118.335938 47.699219 118.488281 47.613281 C 119.773438 46.878906 121.023438 46.082031 122.230469 45.226562 C 122.347656 45.140625 122.472656 45.050781 122.546875 44.925781 C 122.601562 44.828125 122.625 44.714844 122.648438 44.605469 C 122.730469 44.167969 122.710938 43.683594 122.796875 43.246094 Z M 122.796875 43.246094 " fill-opacity="1" fill-rule="nonzero"/></g></g></g></g><g clip-path="url(#81b251027d)"><g clip-path="url(#d6233338b5)"><g clip-path="url(#cae3ff0913)"><g clip-path="url(#4c5c37e40f)"><path fill="#e9e4e0" d="M 81.617188 77.5 C 83.207031 83.398438 83.25 89.707031 81.753906 95.628906 C 81.058594 98.375 79.980469 101.128906 77.953125 103.105469 C 76.613281 104.414062 74.910156 105.316406 73.128906 105.890625 C 65.132812 108.46875 55.953125 104.121094 51.464844 97.011719 C 46.984375 89.898438 46.671875 80.722656 49.011719 72.644531 C 50.199219 68.535156 53.019531 63.109375 57.617188 62.097656 C 61.925781 61.148438 68.8125 62.546875 72.605469 64.582031 C 77.363281 67.125 80.214844 72.277344 81.617188 77.5 Z M 52.976562 29.882812 C 53.039062 28.816406 53.421875 27.800781 53.933594 26.871094 C 54.164062 26.453125 54.578125 26.035156 54.746094 25.601562 C 54.9375 25.105469 54.152344 25.097656 53.8125 25.054688 C 52.742188 24.925781 51.675781 24.742188 50.625 24.496094 C 49.828125 24.3125 48.976562 24.097656 48.210938 24.390625 C 47.628906 24.609375 47.1875 25.09375 46.8125 25.589844 C 46.050781 26.59375 45.425781 27.808594 45.550781 29.058594 C 45.558594 29.117188 45.566406 29.179688 45.597656 29.226562 C 45.652344 29.300781 45.742188 29.328125 45.828125 29.351562 C 46.40625 29.5 46.984375 29.652344 47.566406 29.804688 C 49.246094 30.242188 50.929688 30.683594 52.644531 30.949219 C 52.953125 30.714844 52.957031 30.265625 52.976562 29.882812 Z M 106.859375 42.261719 C 106.523438 41.917969 106.078125 41.714844 105.640625 41.523438 C 104.308594 40.933594 102.851562 40.410156 101.492188 39.886719 C 100.726562 40.25 100.125 40.914062 99.738281 41.667969 C 99.351562 42.425781 99.167969 43.269531 99.082031 44.113281 C 99.078125 44.171875 99.074219 44.230469 99.097656 44.28125 C 99.128906 44.339844 99.183594 44.371094 99.242188 44.402344 C 100.289062 44.960938 101.433594 45.3125 102.570312 45.664062 C 102.992188 45.792969 103.417969 45.925781 103.839844 46.054688 C 103.984375 46.101562 104.132812 46.144531 104.28125 46.125 C 104.40625 46.109375 104.519531 46.050781 104.628906 45.988281 C 105.582031 45.464844 106.390625 44.679688 106.949219 43.746094 C 107.191406 43.332031 107.199219 42.605469 106.859375 42.261719 Z M 106.859375 42.261719 " fill-opacity="1" fill-rule="nonzero"/></g></g></g></g><g clip-path="url(#f7776b4a70)"><g clip-path="url(#58ff6b89d8)"><g clip-path="url(#1b65fe5ed6)"><g clip-path="url(#0a31f8d6bb)"><path fill="#337096" d="M 73.164062 90.207031 C 71.238281 89.707031 69.316406 89.210938 67.390625 88.710938 C 67.03125 91.875 66.605469 95.027344 66.121094 98.175781 C 63.910156 97.386719 61.703125 96.597656 59.492188 95.8125 C 59.160156 95.695312 58.800781 95.546875 58.640625 95.230469 C 58.53125 95.007812 58.550781 94.75 58.566406 94.507812 C 58.769531 91.867188 58.972656 89.226562 59.175781 86.585938 C 58.824219 86.496094 58.472656 86.40625 58.125 86.316406 C 56.835938 85.980469 53.875 85.824219 53.238281 84.410156 C 52.9375 83.742188 54.226562 77.695312 53.929688 77.632812 C 55.875 78.050781 57.816406 78.492188 59.757812 78.949219 C 59.796875 78.425781 59.839844 77.902344 59.878906 77.382812 C 60 75.792969 59.5 71.621094 61.203125 70.972656 C 62.660156 70.414062 67.128906 72.554688 68.664062 72.984375 C 68.535156 75.679688 68.359375 78.371094 68.136719 81.0625 C 70.042969 81.617188 72.855469 82.558594 73.378906 82.699219 C 73.347656 83.324219 73.277344 83.882812 73.292969 84.136719 C 73.414062 86.164062 73.371094 88.191406 73.164062 90.207031 Z M 73.164062 90.207031 " fill-opacity="1" fill-rule="nonzero"/></g></g></g></g><g clip-path="url(#431dcdc5d5)"><g clip-path="url(#c36b720ebd)"><g clip-path="url(#28b01b764a)"><g clip-path="url(#5440f5fe46)"><path fill="#a5a5a4" d="M 57.308594 24.257812 C 57.308594 24.257812 57.007812 28.273438 56.640625 28.574219 C 56.273438 28.875 55.636719 28.472656 55.636719 28.472656 C 55.636719 28.472656 56.683594 28.957031 57.308594 24.257812 Z M 106.820312 42.226562 C 106.171875 42.210938 105.550781 42.597656 105.144531 43.105469 C 104.777344 43.566406 104.566406 44.121094 104.410156 44.679688 C 104.285156 45.136719 104.195312 45.605469 104.214844 46.082031 C 104.214844 46.097656 104.214844 46.105469 104.21875 46.121094 C 104.238281 46.121094 104.257812 46.125 104.277344 46.125 C 104.402344 46.109375 104.515625 46.050781 104.628906 45.988281 C 105.582031 45.464844 106.390625 44.679688 106.945312 43.746094 C 107.191406 43.332031 107.195312 42.601562 106.859375 42.261719 C 106.847656 42.25 106.832031 42.238281 106.820312 42.226562 Z M 50.265625 21.144531 C 49.988281 21.191406 49.730469 21.316406 49.476562 21.441406 C 48.023438 22.160156 46.695312 23.023438 45.34375 23.925781 C 46.273438 24.128906 47.15625 24.292969 48.039062 24.464844 C 48.09375 24.4375 48.152344 24.410156 48.210938 24.390625 C 48.976562 24.097656 49.828125 24.3125 50.625 24.496094 C 50.832031 24.546875 51.035156 24.589844 51.242188 24.632812 C 52.558594 23.875 54.109375 22.890625 55.160156 21.828125 C 54.222656 21.675781 52.183594 21.34375 51.246094 21.195312 C 50.921875 21.140625 50.589844 21.089844 50.265625 21.144531 Z M 119.105469 41.6875 C 118.820312 41.570312 118.523438 41.449219 118.21875 41.46875 C 117.921875 41.488281 117.652344 41.640625 117.394531 41.785156 C 115.777344 42.707031 114.15625 43.628906 112.539062 44.550781 C 114.226562 45.132812 115.792969 45.679688 117.476562 46.265625 C 117.628906 46.316406 117.785156 46.371094 117.945312 46.347656 C 118.085938 46.328125 118.214844 46.253906 118.335938 46.179688 C 119.867188 45.246094 121.296875 44.226562 122.796875 43.242188 C 121.367188 42.644531 120.535156 42.292969 119.105469 41.6875 Z M 119.105469 41.6875 " fill-opacity="1" fill-rule="nonzero"/></g></g></g></g></g></g></g><g clip-path="url(#9a5a377f64)"><path fill="#2e6284" d="M 189.257812 478.351562 C 188.886719 481.898438 187.1875 484.628906 185.464844 484.445312 C 185 484.398438 184.585938 484.140625 184.230469 483.730469 L 184.230469 483.734375 C 174.53125 475.628906 164.601562 484.296875 164.601562 484.296875 C 164.582031 484.273438 164.566406 484.25 164.546875 484.226562 C 163.054688 488.828125 160.902344 493.132812 158.203125 497.027344 C 160.269531 499.347656 163.34375 501.261719 167.910156 501.558594 L 167.90625 501.5625 C 168.445312 501.511719 168.925781 501.613281 169.292969 501.894531 C 170.667969 502.957031 170.023438 506.109375 167.855469 508.9375 C 165.6875 511.765625 162.816406 513.199219 161.4375 512.136719 C 161.070312 511.855469 160.851562 511.417969 160.761719 510.878906 L 160.757812 510.882812 C 159.273438 506.457031 156.566406 503.957031 153.742188 502.570312 C 150.988281 505.523438 147.882812 508.136719 144.484375 510.339844 C 143.960938 511.683594 140.007812 522.757812 150.015625 529.113281 L 150.011719 529.117188 C 150.511719 529.328125 150.882812 529.648438 151.070312 530.074219 C 151.769531 531.664062 149.699219 534.121094 146.445312 535.5625 C 143.1875 537 139.980469 536.878906 139.28125 535.289062 C 139.09375 534.863281 139.109375 534.371094 139.289062 533.859375 L 139.285156 533.859375 C 141.484375 521.394531 129.046875 517.058594 129.046875 517.058594 C 129.066406 517.007812 129.09375 516.957031 129.113281 516.90625 C 125.492188 517.761719 121.71875 518.214844 117.835938 518.214844 C 114.398438 518.214844 111.039062 517.855469 107.800781 517.183594 C 107.183594 519.398438 107.09375 522.003906 107.941406 525.011719 L 107.9375 525.007812 C 108.167969 525.5 108.234375 525.988281 108.089844 526.429688 C 107.550781 528.082031 104.371094 528.527344 100.988281 527.421875 C 97.605469 526.316406 95.300781 524.078125 95.839844 522.425781 C 95.980469 521.980469 96.320312 521.628906 96.796875 521.367188 L 96.789062 521.363281 C 99.144531 519.515625 100.582031 517.453125 101.40625 515.386719 C 97.890625 514.136719 94.554688 512.496094 91.460938 510.515625 C 90.210938 510.53125 78.285156 511 76.238281 522.820312 L 76.234375 522.816406 C 76.226562 523.363281 76.078125 523.828125 75.753906 524.164062 C 74.558594 525.421875 71.5 524.441406 68.925781 521.976562 C 66.355469 519.511719 65.242188 516.496094 66.441406 515.238281 C 66.761719 514.902344 67.21875 514.730469 67.761719 514.699219 L 67.757812 514.695312 C 78.304688 512.359375 79.273438 502.382812 79.332031 499.542969 C 77.453125 497.164062 75.789062 494.609375 74.367188 491.90625 C 72.496094 492.914062 70.691406 494.484375 69.144531 496.851562 L 69.140625 496.847656 C 68.921875 497.34375 68.597656 497.710938 68.171875 497.894531 C 66.574219 498.570312 64.15625 496.457031 62.769531 493.171875 C 61.382812 489.886719 61.554688 486.671875 63.152344 485.996094 C 63.582031 485.8125 64.070312 485.835938 64.578125 486.023438 L 64.574219 486.019531 C 67.300781 486.546875 69.644531 486.359375 71.644531 485.746094 C 70.023438 481.261719 69.035156 476.480469 68.78125 471.5 C 68.507812 471.132812 60.816406 460.953125 49.769531 466.605469 L 49.769531 466.601562 C 49.332031 466.925781 48.871094 467.082031 48.410156 467.027344 C 46.6875 466.820312 45.632812 463.78125 46.054688 460.242188 C 46.476562 456.699219 48.214844 453.992188 49.9375 454.199219 C 50.398438 454.253906 50.808594 454.519531 51.160156 454.933594 L 51.160156 454.929688 C 60.742188 463.175781 70.796875 454.652344 70.796875 454.652344 C 70.804688 454.664062 70.8125 454.675781 70.820312 454.683594 C 72.421875 449.371094 74.898438 444.4375 78.078125 440.046875 C 76.191406 438.347656 73.617188 437.019531 70.105469 436.613281 L 70.105469 436.609375 C 69.566406 436.636719 69.09375 436.511719 68.738281 436.210938 C 67.417969 435.082031 68.21875 431.964844 70.527344 429.25 C 72.832031 426.535156 75.773438 425.246094 77.09375 426.375 C 77.449219 426.675781 77.644531 427.125 77.707031 427.664062 L 77.710938 427.660156 C 78.660156 431.042969 80.355469 433.367188 82.304688 434.964844 C 85.160156 431.964844 88.390625 429.332031 91.917969 427.128906 C 92.480469 425.804688 96.71875 414.835938 86.875 408.21875 L 86.878906 408.21875 C 86.386719 407.992188 86.023438 407.664062 85.847656 407.234375 C 85.1875 405.625 87.324219 403.222656 90.613281 401.867188 C 93.90625 400.511719 97.109375 400.71875 97.765625 402.328125 C 97.945312 402.757812 97.914062 403.246094 97.722656 403.753906 L 97.726562 403.753906 C 95.242188 415.96875 107.152344 420.671875 107.515625 420.8125 C 110.84375 420.097656 114.296875 419.71875 117.835938 419.71875 C 122.269531 419.71875 126.566406 420.3125 130.652344 421.417969 C 131.046875 419.257812 130.933594 416.78125 129.960938 414 L 129.96875 414 C 129.707031 413.523438 129.613281 413.042969 129.730469 412.59375 C 130.167969 410.910156 133.316406 410.273438 136.757812 411.171875 C 140.203125 412.074219 142.636719 414.167969 142.199219 415.847656 C 142.082031 416.300781 141.765625 416.671875 141.308594 416.964844 L 141.316406 416.964844 C 138.941406 419.074219 137.613281 421.351562 136.945312 423.585938 C 140.472656 425.082031 143.785156 426.976562 146.832031 429.214844 C 150.476562 428.546875 158.539062 425.972656 159.652344 416.285156 L 159.65625 416.289062 C 159.632812 415.742188 159.753906 415.269531 160.058594 414.914062 C 161.183594 413.59375 164.289062 414.394531 167 416.707031 C 169.707031 419.019531 170.988281 421.96875 169.863281 423.292969 C 169.5625 423.648438 169.117188 423.847656 168.578125 423.90625 L 168.582031 423.910156 C 156.425781 427.34375 157.9375 440.457031 157.9375 440.457031 C 157.921875 440.457031 157.910156 440.457031 157.894531 440.460938 C 159.433594 442.632812 160.800781 444.9375 161.980469 447.351562 C 164.320312 446.5 166.660156 444.894531 168.667969 442.074219 L 168.671875 442.078125 C 168.910156 441.589844 169.246094 441.238281 169.679688 441.074219 C 171.304688 440.460938 173.636719 442.667969 174.894531 446.007812 C 176.148438 449.34375 175.847656 452.546875 174.222656 453.160156 C 173.789062 453.328125 173.304688 453.28125 172.800781 453.074219 L 172.804688 453.082031 C 169.523438 452.308594 166.761719 452.613281 164.472656 453.476562 C 165.996094 458.085938 166.859375 463 166.945312 468.101562 C 168.964844 470.347656 176.0625 477.015625 185.453125 472.039062 L 185.453125 472.042969 C 185.886719 471.714844 186.34375 471.550781 186.804688 471.597656 C 188.53125 471.78125 189.628906 474.800781 189.257812 478.351562 Z M 189.257812 478.351562 " fill-opacity="1" fill-rule="nonzero"/></g><path fill="#241b14" d="M 118.957031 461.761719 C 114.992188 461.761719 111.769531 464.996094 111.769531 468.96875 C 111.769531 472.9375 114.992188 476.171875 118.957031 476.171875 C 122.917969 476.171875 126.140625 472.9375 126.140625 468.96875 C 126.140625 464.996094 122.917969 461.761719 118.957031 461.761719 Z M 118.957031 475.855469 C 115.167969 475.855469 112.082031 472.765625 112.082031 468.96875 C 112.082031 465.167969 115.167969 462.078125 118.957031 462.078125 C 122.746094 462.078125 125.828125 465.167969 125.828125 468.96875 C 125.828125 472.765625 122.746094 475.855469 118.957031 475.855469 Z M 68.636719 436.328125 C 68.570312 436.273438 68.5625 436.175781 68.621094 436.109375 C 68.675781 436.042969 68.773438 436.035156 68.839844 436.089844 C 70.09375 437.160156 72.941406 435.878906 75.1875 433.234375 C 76.289062 431.9375 77.078125 430.511719 77.410156 429.222656 C 77.730469 427.96875 77.585938 427 76.992188 426.496094 C 76.925781 426.4375 76.917969 426.339844 76.976562 426.273438 C 77.03125 426.207031 77.128906 426.199219 77.195312 426.257812 C 77.882812 426.84375 78.066406 427.921875 77.714844 429.300781 C 77.371094 430.636719 76.558594 432.105469 75.425781 433.4375 C 73.660156 435.515625 71.507812 436.765625 69.957031 436.765625 C 69.4375 436.765625 68.984375 436.625 68.636719 436.328125 Z M 82.207031 435.085938 C 82.140625 435.03125 82.128906 434.933594 82.183594 434.867188 C 82.238281 434.800781 82.339844 434.789062 82.40625 434.84375 C 87.375 438.910156 94.128906 438.183594 94.195312 438.175781 C 94.28125 438.164062 94.359375 438.226562 94.371094 438.3125 C 94.378906 438.398438 94.320312 438.476562 94.234375 438.488281 C 94.214844 438.488281 93.710938 438.542969 92.886719 438.542969 C 90.621094 438.542969 85.929688 438.132812 82.207031 435.085938 Z M 77.972656 440.160156 C 77.910156 440.105469 77.902344 440.003906 77.960938 439.941406 C 78.019531 439.875 78.117188 439.871094 78.183594 439.929688 C 83.027344 444.292969 83.390625 451.179688 83.390625 451.246094 C 83.394531 451.335938 83.328125 451.40625 83.242188 451.410156 C 83.242188 451.410156 83.238281 451.410156 83.234375 451.410156 C 83.152344 451.410156 83.082031 451.347656 83.078125 451.261719 C 83.078125 451.195312 82.71875 444.4375 77.972656 440.160156 Z M 68.699219 490.65625 C 70.117188 494.015625 69.90625 497.328125 68.230469 498.039062 C 68.210938 498.046875 68.191406 498.050781 68.171875 498.050781 C 68.109375 498.050781 68.050781 498.015625 68.027344 497.953125 C 67.992188 497.875 68.03125 497.785156 68.109375 497.75 C 69.625 497.105469 69.761719 493.980469 68.410156 490.777344 C 67.0625 487.578125 64.730469 485.496094 63.214844 486.140625 C 63.136719 486.171875 63.042969 486.136719 63.007812 486.054688 C 62.976562 485.976562 63.011719 485.882812 63.09375 485.851562 C 64.769531 485.140625 67.28125 487.296875 68.699219 490.65625 Z M 71.6875 485.898438 C 71.671875 485.902344 71.660156 485.902344 71.644531 485.902344 C 71.578125 485.902344 71.515625 485.859375 71.492188 485.792969 C 71.46875 485.710938 71.515625 485.621094 71.597656 485.597656 C 78.539062 483.46875 81.316406 476.039062 81.34375 475.964844 C 81.375 475.882812 81.464844 475.84375 81.546875 475.871094 C 81.625 475.902344 81.667969 475.992188 81.640625 476.074219 C 81.609375 476.148438 78.78125 483.722656 71.6875 485.898438 Z M 74.433594 492.042969 C 74.410156 492.058594 74.386719 492.0625 74.359375 492.0625 C 74.304688 492.0625 74.25 492.035156 74.222656 491.980469 C 74.183594 491.90625 74.210938 491.808594 74.285156 491.769531 C 80.761719 488.269531 88.078125 491.480469 88.148438 491.511719 C 88.226562 491.546875 88.265625 491.640625 88.226562 491.71875 C 88.191406 491.796875 88.101562 491.832031 88.023438 491.796875 C 87.949219 491.765625 80.769531 488.621094 74.433594 492.042969 Z M 101.261719 515.332031 C 103.863281 508.820312 100.25 502.144531 100.214844 502.078125 C 100.171875 502 100.199219 501.90625 100.277344 501.863281 C 100.351562 501.824219 100.445312 501.851562 100.488281 501.925781 C 100.527344 501.992188 104.207031 508.796875 101.550781 515.449219 C 101.527344 515.507812 101.46875 515.546875 101.40625 515.546875 C 101.386719 515.546875 101.367188 515.542969 101.347656 515.535156 C 101.265625 515.503906 101.230469 515.414062 101.261719 515.332031 Z M 116.589844 507.199219 C 116.628906 507.277344 116.59375 507.371094 116.515625 507.40625 C 116.449219 507.4375 109.78125 510.613281 107.949219 517.226562 C 107.929688 517.296875 107.867188 517.339844 107.796875 517.339844 C 107.785156 517.339844 107.769531 517.339844 107.757812 517.335938 C 107.671875 517.3125 107.625 517.226562 107.648438 517.140625 C 109.519531 510.386719 116.316406 507.152344 116.382812 507.121094 C 116.460938 507.085938 116.554688 507.121094 116.589844 507.199219 Z M 108.238281 526.476562 C 108.214844 526.542969 108.15625 526.585938 108.089844 526.585938 C 108.074219 526.585938 108.054688 526.582031 108.039062 526.578125 C 107.957031 526.550781 107.914062 526.460938 107.941406 526.378906 C 108.449219 524.8125 106.183594 522.660156 102.886719 521.582031 C 99.59375 520.503906 96.496094 520.90625 95.988281 522.472656 C 95.960938 522.554688 95.871094 522.601562 95.789062 522.574219 C 95.707031 522.546875 95.664062 522.457031 95.6875 522.375 C 96.261719 520.613281 99.46875 520.132812 102.984375 521.285156 C 106.445312 522.414062 108.800781 524.746094 108.238281 526.476562 Z M 153.886719 502.640625 C 153.859375 502.695312 153.800781 502.726562 153.746094 502.726562 C 153.722656 502.726562 153.699219 502.722656 153.675781 502.710938 C 148.945312 500.382812 143.820312 501.203125 143.769531 501.210938 C 143.683594 501.226562 143.601562 501.167969 143.589844 501.082031 C 143.574219 500.996094 143.632812 500.917969 143.71875 500.902344 C 143.769531 500.894531 148.996094 500.058594 153.8125 502.429688 C 153.890625 502.46875 153.921875 502.5625 153.886719 502.640625 Z M 158.320312 496.925781 C 158.378906 496.992188 158.375 497.089844 158.308594 497.148438 C 158.28125 497.175781 158.242188 497.1875 158.207031 497.1875 C 158.160156 497.1875 158.121094 497.167969 158.089844 497.136719 C 154.460938 493.058594 153.910156 487.667969 153.90625 487.613281 C 153.898438 487.527344 153.960938 487.449219 154.046875 487.441406 C 154.132812 487.4375 154.210938 487.496094 154.21875 487.582031 C 154.222656 487.636719 154.761719 492.929688 158.320312 496.925781 Z M 169.386719 501.769531 C 169.457031 501.824219 169.46875 501.921875 169.417969 501.992188 C 169.363281 502.058594 169.265625 502.070312 169.195312 502.019531 C 168.582031 501.546875 167.605469 501.601562 166.449219 502.179688 C 165.257812 502.773438 164.035156 503.84375 163 505.191406 C 160.886719 507.949219 160.230469 511.007812 161.535156 512.011719 C 161.601562 512.066406 161.617188 512.164062 161.5625 512.234375 C 161.53125 512.273438 161.484375 512.292969 161.4375 512.292969 C 161.40625 512.292969 161.371094 512.285156 161.34375 512.261719 C 159.902344 511.152344 160.535156 507.894531 162.75 505 C 163.8125 503.613281 165.078125 502.511719 166.3125 501.898438 C 167.578125 501.265625 168.671875 501.21875 169.386719 501.769531 Z M 164.53125 453.621094 C 158.390625 455.929688 155.675781 462.394531 155.652344 462.460938 C 155.625 462.519531 155.566406 462.558594 155.503906 462.558594 C 155.484375 462.558594 155.464844 462.554688 155.445312 462.546875 C 155.367188 462.511719 155.328125 462.421875 155.359375 462.339844 C 155.386719 462.273438 158.148438 455.6875 164.421875 453.328125 C 164.5 453.296875 164.59375 453.335938 164.621094 453.417969 C 164.652344 453.5 164.613281 453.589844 164.53125 453.621094 Z M 161.929688 447.203125 C 162.011719 447.175781 162.101562 447.214844 162.132812 447.296875 C 162.160156 447.378906 162.117188 447.46875 162.039062 447.5 C 160.371094 448.105469 158.695312 448.328125 157.140625 448.328125 C 152.894531 448.328125 149.511719 446.679688 149.464844 446.65625 C 149.390625 446.617188 149.355469 446.523438 149.394531 446.445312 C 149.433594 446.367188 149.527344 446.335938 149.605469 446.375 C 149.667969 446.40625 155.847656 449.414062 161.929688 447.203125 Z M 174.28125 453.308594 C 174.085938 453.382812 173.878906 453.417969 173.667969 453.417969 C 172.035156 453.417969 170.003906 451.304688 168.867188 448.28125 C 168.253906 446.648438 167.984375 444.988281 168.113281 443.613281 C 168.246094 442.199219 168.78125 441.246094 169.625 440.925781 C 169.707031 440.894531 169.796875 440.9375 169.828125 441.019531 C 169.859375 441.097656 169.816406 441.1875 169.738281 441.21875 C 169.011719 441.492188 168.542969 442.355469 168.425781 443.644531 C 168.300781 444.972656 168.5625 446.578125 169.160156 448.171875 C 170.382812 451.425781 172.628906 453.597656 174.167969 453.015625 C 174.25 452.984375 174.339844 453.027344 174.371094 453.105469 C 174.402344 453.1875 174.359375 453.277344 174.28125 453.308594 Z M 138.792969 436.59375 C 138.75 436.527344 134.816406 430.203125 136.796875 423.542969 C 136.820312 423.460938 136.910156 423.414062 136.992188 423.4375 C 137.074219 423.460938 137.121094 423.546875 137.097656 423.632812 C 135.15625 430.152344 139.015625 436.363281 139.054688 436.425781 C 139.101562 436.496094 139.082031 436.59375 139.007812 436.640625 C 138.980469 436.65625 138.953125 436.664062 138.921875 436.664062 C 138.871094 436.664062 138.820312 436.640625 138.792969 436.59375 Z M 122.402344 432.304688 C 122.359375 432.226562 122.386719 432.132812 122.464844 432.089844 C 122.53125 432.054688 129.234375 428.347656 130.5 421.386719 C 130.515625 421.300781 130.601562 421.246094 130.683594 421.257812 C 130.769531 421.273438 130.824219 421.355469 130.808594 421.441406 C 129.515625 428.554688 122.683594 432.328125 122.613281 432.367188 C 122.589844 432.378906 122.5625 432.386719 122.539062 432.386719 C 122.484375 432.386719 122.429688 432.355469 122.402344 432.304688 Z M 129.582031 412.554688 C 129.601562 412.46875 129.6875 412.417969 129.769531 412.441406 C 129.855469 412.460938 129.90625 412.546875 129.882812 412.632812 C 129.6875 413.386719 130.117188 414.261719 131.097656 415.105469 C 132.109375 415.972656 133.570312 416.6875 135.214844 417.117188 C 138.566406 417.992188 141.632812 417.40625 142.050781 415.808594 C 142.070312 415.726562 142.15625 415.675781 142.238281 415.699219 C 142.324219 415.71875 142.375 415.804688 142.351562 415.890625 C 142.03125 417.121094 140.351562 417.828125 138.171875 417.828125 C 137.230469 417.828125 136.195312 417.699219 135.132812 417.421875 C 133.445312 416.980469 131.941406 416.242188 130.894531 415.34375 C 129.820312 414.417969 129.351562 413.429688 129.582031 412.554688 Z M 166.800781 468.96875 C 166.800781 468.683594 166.796875 468.398438 166.792969 468.117188 C 166.792969 468.03125 166.859375 467.960938 166.945312 467.957031 C 167.039062 467.945312 167.105469 468.023438 167.105469 468.113281 C 167.109375 468.394531 167.113281 468.679688 167.113281 468.96875 C 167.113281 474.199219 166.300781 479.351562 164.699219 484.28125 C 164.675781 484.347656 164.617188 484.390625 164.550781 484.390625 C 164.535156 484.390625 164.519531 484.386719 164.5 484.382812 C 164.417969 484.355469 164.375 484.269531 164.402344 484.183594 C 165.992188 479.289062 166.800781 474.167969 166.800781 468.96875 Z M 146.746094 429.339844 C 146.675781 429.289062 146.660156 429.191406 146.710938 429.121094 C 146.761719 429.054688 146.859375 429.039062 146.929688 429.089844 C 151.21875 432.242188 154.957031 436.042969 158.035156 440.386719 C 158.085938 440.457031 158.070312 440.554688 158 440.605469 C 157.972656 440.625 157.9375 440.636719 157.90625 440.636719 C 157.859375 440.636719 157.8125 440.613281 157.78125 440.570312 C 154.722656 436.25 151.007812 432.472656 146.746094 429.339844 Z M 91.683594 427.273438 C 91.636719 427.199219 91.660156 427.105469 91.734375 427.058594 C 96.59375 424.007812 101.894531 421.851562 107.492188 420.65625 C 107.574219 420.640625 107.660156 420.691406 107.675781 420.773438 C 107.695312 420.859375 107.640625 420.941406 107.554688 420.960938 C 101.996094 422.152344 96.730469 424.292969 91.898438 427.324219 C 91.875 427.339844 91.84375 427.347656 91.816406 427.347656 C 91.765625 427.347656 91.714844 427.320312 91.683594 427.273438 Z M 70.96875 454.71875 C 69.578125 459.316406 68.875 464.113281 68.875 468.96875 C 68.875 469.8125 68.894531 470.667969 68.9375 471.503906 C 68.941406 471.589844 68.875 471.664062 68.789062 471.667969 C 68.789062 471.667969 68.785156 471.667969 68.78125 471.667969 C 68.699219 471.667969 68.628906 471.601562 68.625 471.519531 C 68.582031 470.675781 68.5625 469.820312 68.5625 468.96875 C 68.5625 464.082031 69.269531 459.257812 70.671875 454.625 C 70.695312 454.542969 70.78125 454.496094 70.863281 454.519531 C 70.949219 454.546875 70.996094 454.632812 70.96875 454.71875 Z M 91.667969 510.648438 C 91.636719 510.695312 91.585938 510.722656 91.535156 510.722656 C 91.507812 510.722656 91.476562 510.714844 91.449219 510.699219 C 86.777344 507.71875 82.660156 504 79.210938 499.644531 C 79.160156 499.578125 79.167969 499.480469 79.238281 499.425781 C 79.304688 499.371094 79.402344 499.382812 79.457031 499.453125 C 82.882812 503.78125 86.972656 507.472656 91.617188 510.433594 C 91.691406 510.480469 91.714844 510.578125 91.667969 510.648438 Z M 144.574219 510.285156 C 144.621094 510.359375 144.597656 510.457031 144.527344 510.503906 C 139.773438 513.578125 134.578125 515.792969 129.082031 517.078125 C 129.070312 517.082031 129.058594 517.082031 129.046875 517.082031 C 128.976562 517.082031 128.914062 517.03125 128.894531 516.960938 C 128.875 516.875 128.929688 516.792969 129.011719 516.773438 C 134.472656 515.496094 139.632812 513.296875 144.355469 510.238281 C 144.429688 510.191406 144.527344 510.214844 144.574219 510.285156 Z M 94.386719 441.195312 C 94.371094 441.25 92.710938 446.90625 86.179688 450.417969 C 86.15625 450.429688 86.132812 450.4375 86.105469 450.4375 C 86.050781 450.4375 85.996094 450.40625 85.96875 450.355469 C 85.929688 450.277344 85.957031 450.183594 86.03125 450.144531 C 92.441406 446.695312 94.070312 441.164062 94.085938 441.109375 C 94.109375 441.027344 94.191406 440.976562 94.277344 441 C 94.359375 441.023438 94.410156 441.113281 94.386719 441.195312 Z M 88.257812 490.472656 C 88.847656 484.539062 86.277344 481.011719 86.25 480.976562 C 86.199219 480.90625 86.210938 480.808594 86.28125 480.757812 C 86.351562 480.707031 86.449219 480.71875 86.5 480.789062 C 86.527344 480.824219 89.167969 484.441406 88.570312 490.503906 C 88.5625 490.585938 88.492188 490.648438 88.414062 490.648438 C 88.410156 490.648438 88.402344 490.644531 88.398438 490.644531 C 88.3125 490.636719 88.25 490.5625 88.257812 490.472656 Z M 115.382812 505.578125 C 115.449219 505.632812 115.457031 505.730469 115.402344 505.796875 C 115.371094 505.835938 115.324219 505.855469 115.28125 505.855469 C 115.246094 505.855469 115.210938 505.839844 115.179688 505.816406 C 108.40625 500.078125 103.019531 501.488281 102.964844 501.5 C 102.878906 501.523438 102.792969 501.476562 102.769531 501.390625 C 102.75 501.308594 102.796875 501.222656 102.878906 501.199219 C 102.933594 501.183594 108.472656 499.722656 115.382812 505.578125 Z M 148.898438 449.695312 C 148.898438 449.765625 148.820312 456.710938 153.636719 460.832031 C 153.703125 460.890625 153.710938 460.988281 153.65625 461.054688 C 153.625 461.089844 153.578125 461.109375 153.535156 461.109375 C 153.5 461.109375 153.464844 461.097656 153.433594 461.070312 C 148.5 456.851562 148.585938 449.761719 148.585938 449.691406 C 148.589844 449.605469 148.660156 449.542969 148.746094 449.535156 C 148.832031 449.539062 148.902344 449.609375 148.898438 449.695312 Z M 143.855469 498.3125 C 146.101562 490.507812 151.367188 488.445312 151.421875 488.425781 C 151.5 488.394531 151.589844 488.4375 151.621094 488.519531 C 151.652344 488.597656 151.609375 488.691406 151.53125 488.71875 C 151.480469 488.738281 146.355469 490.753906 144.15625 498.398438 C 144.132812 498.46875 144.070312 498.511719 144.003906 498.511719 C 143.988281 498.511719 143.976562 498.511719 143.960938 498.503906 C 143.878906 498.480469 143.828125 498.394531 143.855469 498.3125 Z M 136.589844 437.128906 C 136.671875 437.121094 136.75 437.191406 136.753906 437.277344 C 136.757812 437.363281 136.695312 437.4375 136.609375 437.441406 C 135.984375 437.480469 135.386719 437.5 134.816406 437.5 C 126.9375 437.5 123.976562 434.117188 123.84375 433.964844 C 123.789062 433.898438 123.796875 433.800781 123.863281 433.742188 C 123.929688 433.6875 124.027344 433.695312 124.082031 433.761719 C 124.117188 433.800781 127.535156 437.683594 136.589844 437.128906 Z M 136.589844 437.128906 " fill-opacity="1" fill-rule="nonzero"/><g mask="url(#402b4f8b23)"><g transform="matrix(1, 0, 0, 1, 74, 423)"><g clip-path="url(#1b2abc0c67)"><g clip-path="url(#152bdd44c1)"><path fill="#2b3044" d="M 77.839844 47.96875 C 77.828125 49.746094 76.75 52.109375 75.242188 53.082031 C 65.734375 56.828125 75.25 39.136719 77.839844 47.96875 Z M 63.582031 42.714844 C 60.417969 47.085938 51.964844 55.222656 56.941406 59.761719 C 59.542969 62.132812 68.855469 67.710938 69.074219 61.585938 C 69.289062 55.75 74.125 40.421875 63.582031 42.714844 Z M 82.867188 51.597656 C 80.894531 49.808594 78.277344 54 79.699219 55.574219 C 81.925781 57.40625 84.332031 53.355469 82.867188 51.597656 Z M 77.203125 59.53125 C 76.105469 58.402344 74.054688 59.511719 74.507812 61.058594 C 75.269531 63.546875 79.007812 61.464844 77.203125 59.53125 Z M 55.039062 68.855469 C 57.191406 61.636719 42.457031 67.304688 46.171875 72.167969 C 49.113281 73.816406 53.234375 71.265625 55.039062 68.855469 Z M 24.230469 67.121094 C 22.984375 63.957031 17.585938 68.335938 19.71875 70.539062 C 21.765625 72.269531 25.742188 69.648438 24.230469 67.121094 Z M 42.988281 63.550781 C 41.25 59.183594 29.730469 64.007812 32.296875 68.679688 C 34.957031 71.015625 45.507812 67.804688 42.988281 63.550781 Z M 34.699219 30.886719 C 28.847656 17.132812 18.613281 29.5 16.40625 38.601562 C 12 50.085938 28.714844 57.320312 30.097656 43.558594 C 30.460938 38.832031 36.4375 36.027344 34.699219 30.886719 Z M 9.207031 37.757812 C 6.820312 37.308594 6.007812 41.875 7.355469 43.21875 C 10.398438 45.132812 11.796875 38.699219 9.207031 37.757812 Z M 4.457031 44.589844 C 0.785156 41.777344 1.695312 49.449219 0.757812 51.472656 C 2.609375 58.921875 7.632812 47.269531 4.457031 44.589844 Z M 8.796875 33.628906 C 10.320312 31.839844 8.035156 28.875 6.378906 31.101562 C 4.894531 32.933594 7.117188 35.828125 8.796875 33.628906 Z M 56.328125 31.875 C 62.539062 34.769531 61.226562 21.230469 55.53125 23.714844 C 53.460938 25.722656 54.023438 30.171875 56.328125 31.875 Z M 67.90625 34.75 C 73.96875 32.238281 65.371094 14.097656 61.15625 19.898438 C 61.75 24.527344 61.832031 34.539062 67.90625 34.75 Z M 45.234375 2.269531 C 45.253906 0.0742188 41.644531 -0.0820312 40.171875 0.59375 C 35.832031 4.363281 46.539062 7.769531 45.234375 2.269531 Z M 30.546875 8.535156 C 32.070312 9.453125 35.5625 10.945312 36.488281 8.625 C 37.3125 4.675781 27.082031 4.460938 30.546875 8.535156 Z M 47.132812 21.734375 C 48.21875 24.660156 51.660156 22.105469 50.222656 19.808594 C 49.035156 17.945312 45.929688 19.738281 47.132812 21.734375 Z M 20.765625 10.390625 C 22.457031 11.675781 25.589844 8.539062 23.378906 7.1875 C 21.617188 6.171875 18.960938 8.917969 20.765625 10.390625 Z M 76.214844 19.417969 C 79.398438 16.777344 73.316406 12.753906 70.800781 12.6875 C 67.207031 14.765625 73.5625 20.546875 76.214844 19.417969 Z M 58.609375 81.433594 C 55.683594 81.433594 51.90625 82.460938 50.144531 84.886719 C 45.679688 93.445312 68.09375 85.441406 58.609375 81.433594 Z M 38.480469 70.925781 C 36.464844 70.925781 36.464844 74.0625 38.480469 74.0625 C 40.492188 74.0625 40.496094 70.925781 38.480469 70.925781 Z M 38.480469 70.925781 " fill-opacity="1" fill-rule="nonzero"/></g></g></g></g><g mask="url(#0a83c6d11d)"><g transform="matrix(1, 0, 0, 1, 768, 465)"><g clip-path="url(#3313956b06)"><g clip-path="url(#67e7df7917)"><path fill="#000000" d="M 240.042969 39.371094 L 234.6875 33.980469 L 293.761719 33.980469 C 294.046875 35.320312 295.226562 36.324219 296.648438 36.324219 C 298.277344 36.324219 299.59375 34.992188 299.59375 33.355469 C 299.59375 31.71875 298.277344 30.386719 296.648438 30.386719 C 295.226562 30.386719 294.046875 31.394531 293.761719 32.734375 L 233.449219 32.734375 L 217.710938 16.894531 L 217.273438 16.714844 L 169.6875 16.714844 L 169.382812 16.800781 L 152.242188 26.757812 L 122 26.757812 L 83.15625 4.179688 L 114.585938 4.179688 L 135.722656 16.460938 C 135.632812 16.75 135.578125 17.058594 135.578125 17.371094 C 135.578125 19.011719 136.902344 20.339844 138.527344 20.339844 C 140.15625 20.339844 141.476562 19.011719 141.476562 17.371094 C 141.476562 15.730469 140.15625 14.40625 138.527344 14.40625 C 137.664062 14.40625 136.878906 14.785156 136.339844 15.382812 L 115.058594 3.019531 L 114.753906 2.933594 L 5.964844 2.933594 C 5.679688 1.59375 4.5 0.589844 3.078125 0.589844 C 1.449219 0.589844 0.132812 1.914062 0.132812 3.554688 C 0.132812 5.195312 1.449219 6.519531 3.078125 6.519531 C 4.5 6.519531 5.679688 5.519531 5.964844 4.179688 L 80.679688 4.179688 L 99.03125 14.847656 L 32.214844 14.847656 C 31.929688 13.507812 30.75 12.5 29.328125 12.5 C 27.699219 12.5 26.382812 13.832031 26.382812 15.46875 C 26.382812 17.105469 27.699219 18.4375 29.328125 18.4375 C 30.742188 18.4375 31.929688 17.433594 32.214844 16.09375 L 101.183594 16.09375 L 121.527344 27.921875 L 121.839844 28.007812 L 150.089844 28.007812 L 134.441406 37.105469 L 73.6875 37.105469 C 73.398438 35.765625 72.21875 34.757812 70.800781 34.757812 C 69.171875 34.757812 67.851562 36.085938 67.851562 37.722656 C 67.851562 39.363281 69.171875 40.691406 70.800781 40.691406 C 72.21875 40.691406 73.398438 39.691406 73.6875 38.351562 L 134.601562 38.351562 L 134.914062 38.265625 L 152.707031 27.921875 L 159.441406 24.007812 L 190.597656 24.007812 L 172.515625 34.515625 C 171.976562 33.914062 171.195312 33.539062 170.328125 33.539062 C 168.699219 33.539062 167.382812 34.867188 167.382812 36.507812 C 167.382812 38.148438 168.699219 39.472656 170.328125 39.472656 C 171.957031 39.472656 173.273438 38.144531 173.273438 36.507812 C 173.273438 36.1875 173.226562 35.878906 173.136719 35.597656 L 193.070312 24.007812 L 223.027344 24.007812 L 239.164062 40.25 C 238.871094 40.714844 238.695312 41.269531 238.695312 41.867188 C 238.695312 43.5 240.011719 44.832031 241.640625 44.832031 C 243.273438 44.832031 244.589844 43.5 244.589844 41.867188 C 244.589844 40.226562 243.273438 38.894531 241.640625 38.894531 C 241.050781 38.894531 240.503906 39.070312 240.042969 39.371094 Z M 161.589844 22.761719 L 169.847656 17.960938 L 217.015625 17.960938 L 221.789062 22.761719 Z M 161.589844 22.761719 " fill-opacity="1" fill-rule="nonzero"/></g></g></g></g></svg>