<svg xmlns="http://www.w3.org/2000/svg" xmlns:xlink="http://www.w3.org/1999/xlink" width="500" zoomAndPan="magnify" viewBox="0 0 375 64.499998" height="86" preserveAspectRatio="xMidYMid meet" version="1.0"><defs><filter x="0%" y="0%" width="100%" height="100%" id="ceaadc1d4d"><feColorMatrix values="0 0 0 0 1 0 0 0 0 1 0 0 0 0 1 0 0 0 1 0" color-interpolation-filters="sRGB"/></filter><clipPath id="70caa36b57"><path d="M 1.441406 3 L 372 3 L 372 62 L 1.441406 62 Z M 1.441406 3 " clip-rule="nonzero"/></clipPath><mask id="542a656c97"><g filter="url(#ceaadc1d4d)"><rect x="-37.5" width="450" fill="#000000" y="-6.45" height="77.399998" fill-opacity="0.2863"/></g></mask><clipPath id="de27956190"><path d="M 0.441406 0.199219 L 370.773438 0.199219 L 370.773438 57.507812 L 0.441406 57.507812 Z M 0.441406 0.199219 " clip-rule="nonzero"/></clipPath><clipPath id="7e9648d3ac"><rect x="0" width="371" y="0" height="59"/></clipPath></defs><g clip-path="url(#70caa36b57)"><g mask="url(#542a656c97)"><g transform="matrix(1, 0, 0, 1, 1, 3)"><g clip-path="url(#7e9648d3ac)"><g clip-path="url(#de27956190)"><path fill="#031819" d="M 56.375 50.425781 L 63.390625 43.445312 L -13.988281 43.445312 C -14.363281 45.179688 -15.910156 46.480469 -17.769531 46.480469 C -19.902344 46.480469 -21.628906 44.757812 -21.628906 42.632812 C -21.628906 40.515625 -19.902344 38.792969 -17.769531 38.792969 C -15.910156 38.792969 -14.363281 40.09375 -13.988281 41.828125 L 65.011719 41.828125 L 85.628906 21.320312 L 86.203125 21.085938 L 148.53125 21.085938 L 148.933594 21.195312 L 171.386719 34.089844 L 210.996094 34.089844 L 261.878906 4.851562 L 220.707031 4.851562 L 193.023438 20.757812 C 193.140625 21.132812 193.210938 21.53125 193.210938 21.9375 C 193.210938 24.058594 191.476562 25.777344 189.351562 25.777344 C 187.214844 25.777344 185.480469 24.058594 185.480469 21.9375 C 185.480469 19.8125 187.214844 18.09375 189.351562 18.09375 C 190.480469 18.09375 191.507812 18.585938 192.214844 19.359375 L 220.085938 3.347656 L 220.488281 3.238281 L 362.984375 3.238281 C 363.363281 1.503906 364.90625 0.199219 366.765625 0.199219 C 368.902344 0.199219 370.625 1.917969 370.625 4.042969 C 370.625 6.164062 368.902344 7.882812 366.765625 7.882812 C 364.90625 7.882812 363.363281 6.585938 362.984375 4.851562 L 265.117188 4.851562 L 241.082031 18.664062 L 328.601562 18.664062 C 328.976562 16.929688 330.523438 15.628906 332.382812 15.628906 C 334.515625 15.628906 336.242188 17.351562 336.242188 19.46875 C 336.242188 21.59375 334.515625 23.316406 332.382812 23.316406 C 330.53125 23.316406 328.976562 22.015625 328.601562 20.28125 L 238.265625 20.28125 L 211.613281 35.597656 L 211.207031 35.707031 L 174.199219 35.707031 L 194.699219 47.488281 L 274.28125 47.488281 C 274.65625 45.757812 276.203125 44.453125 278.0625 44.453125 C 280.195312 44.453125 281.921875 46.167969 281.921875 48.292969 C 281.921875 50.417969 280.195312 52.132812 278.0625 52.132812 C 276.203125 52.132812 274.65625 50.839844 274.28125 49.105469 L 194.488281 49.105469 L 194.082031 48.996094 L 170.773438 35.597656 L 161.953125 30.53125 L 121.144531 30.53125 L 144.828125 44.140625 C 145.535156 43.359375 146.554688 42.875 147.691406 42.875 C 149.828125 42.875 151.550781 44.59375 151.550781 46.714844 C 151.550781 48.839844 149.828125 50.558594 147.691406 50.558594 C 145.558594 50.558594 143.832031 48.839844 143.832031 46.714844 C 143.832031 46.300781 143.894531 45.902344 144.011719 45.539062 L 117.90625 30.53125 L 78.664062 30.53125 L 57.527344 51.566406 C 57.914062 52.164062 58.140625 52.882812 58.140625 53.65625 C 58.140625 55.773438 56.414062 57.5 54.28125 57.5 C 52.148438 57.5 50.421875 55.773438 50.421875 53.65625 C 50.421875 51.535156 52.148438 49.808594 54.28125 49.808594 C 55.058594 49.808594 55.773438 50.035156 56.375 50.425781 Z M 159.136719 28.914062 L 148.320312 22.699219 L 86.539062 22.699219 L 80.289062 28.914062 Z M 159.136719 28.914062 " fill-opacity="1" fill-rule="nonzero"/></g></g></g></g></g></svg>