<svg xmlns="http://www.w3.org/2000/svg" xmlns:xlink="http://www.w3.org/1999/xlink" width="500" zoomAndPan="magnify" viewBox="0 0 375 374.999991" height="500" preserveAspectRatio="xMidYMid meet" version="1.0"><defs><filter x="0%" y="0%" width="100%" height="100%" id="625cd55f35"><feColorMatrix values="0 0 0 0 1 0 0 0 0 1 0 0 0 0 1 0 0 0 1 0" color-interpolation-filters="sRGB"/></filter><clipPath id="dd5692e15a"><path d="M 20 22 L 358 22 L 358 338 L 20 338 Z M 20 22 " clip-rule="nonzero"/></clipPath><clipPath id="b3250eac5b"><path d="M 102.179688 -27.953125 L 411.457031 82.328125 L 297.125 402.972656 L -12.152344 292.691406 Z M 102.179688 -27.953125 " clip-rule="nonzero"/></clipPath><clipPath id="ae57ae1943"><path d="M 102.179688 -27.953125 L 411.457031 82.328125 L 297.125 402.972656 L -12.152344 292.691406 Z M 102.179688 -27.953125 " clip-rule="nonzero"/></clipPath><clipPath id="35cacbc95f"><path d="M 84 88 L 174 88 L 174 232 L 84 232 Z M 84 88 " clip-rule="nonzero"/></clipPath><clipPath id="926d885ec0"><path d="M 50.726562 120.726562 L 173.292969 88.679688 L 205.554688 212.082031 L 82.988281 244.125 Z M 50.726562 120.726562 " clip-rule="nonzero"/></clipPath><clipPath id="7767186d67"><path d="M 50.726562 120.726562 L 173.292969 88.679688 L 205.554688 212.082031 L 82.988281 244.125 Z M 50.726562 120.726562 " clip-rule="nonzero"/></clipPath><clipPath id="baf9100a6d"><path d="M 50.726562 120.726562 L 173.292969 88.679688 L 205.554688 212.082031 L 82.988281 244.125 Z M 50.726562 120.726562 " clip-rule="nonzero"/></clipPath><clipPath id="83d3e9bb0a"><path d="M 57.960938 118.835938 L 173.347656 88.664062 L 203.6875 204.707031 L 88.300781 234.878906 Z M 57.960938 118.835938 " clip-rule="nonzero"/></clipPath><clipPath id="6f88f0f584"><path d="M 57.960938 118.835938 L 173.246094 88.691406 L 203.585938 204.734375 L 88.300781 234.878906 Z M 57.960938 118.835938 " clip-rule="nonzero"/></clipPath><clipPath id="18e6061788"><path d="M 96 148 L 144 148 L 144 212 L 96 212 Z M 96 148 " clip-rule="nonzero"/></clipPath><clipPath id="817aab3378"><path d="M 50.726562 120.726562 L 173.292969 88.679688 L 205.554688 212.082031 L 82.988281 244.125 Z M 50.726562 120.726562 " clip-rule="nonzero"/></clipPath><clipPath id="ec23362e0a"><path d="M 50.726562 120.726562 L 173.292969 88.679688 L 205.554688 212.082031 L 82.988281 244.125 Z M 50.726562 120.726562 " clip-rule="nonzero"/></clipPath><clipPath id="2552c14e2d"><path d="M 50.726562 120.726562 L 173.292969 88.679688 L 205.554688 212.082031 L 82.988281 244.125 Z M 50.726562 120.726562 " clip-rule="nonzero"/></clipPath><clipPath id="502bdecee3"><path d="M 77 121 L 159 121 L 159 239 L 77 239 Z M 77 121 " clip-rule="nonzero"/></clipPath><clipPath id="b93de53ee7"><path d="M 50.726562 120.726562 L 173.292969 88.679688 L 205.554688 212.082031 L 82.988281 244.125 Z M 50.726562 120.726562 " clip-rule="nonzero"/></clipPath><clipPath id="731ccd3b05"><path d="M 50.726562 120.726562 L 173.292969 88.679688 L 205.554688 212.082031 L 82.988281 244.125 Z M 50.726562 120.726562 " clip-rule="nonzero"/></clipPath><clipPath id="2004cc7ef3"><path d="M 50.726562 120.726562 L 173.292969 88.679688 L 205.554688 212.082031 L 82.988281 244.125 Z M 50.726562 120.726562 " clip-rule="nonzero"/></clipPath><clipPath id="7b2477cacd"><path d="M 78 220 L 106 220 L 106 237 L 78 237 Z M 78 220 " clip-rule="nonzero"/></clipPath><clipPath id="c31241c128"><path d="M 50.726562 120.726562 L 173.292969 88.679688 L 205.554688 212.082031 L 82.988281 244.125 Z M 50.726562 120.726562 " clip-rule="nonzero"/></clipPath><clipPath id="3acfa69fd1"><path d="M 50.726562 120.726562 L 173.292969 88.679688 L 205.554688 212.082031 L 82.988281 244.125 Z M 50.726562 120.726562 " clip-rule="nonzero"/></clipPath><clipPath id="959c32c795"><path d="M 50.726562 120.726562 L 173.292969 88.679688 L 205.554688 212.082031 L 82.988281 244.125 Z M 50.726562 120.726562 " clip-rule="nonzero"/></clipPath><clipPath id="b30b552306"><path d="M 83 196 L 124 196 L 124 223 L 83 223 Z M 83 196 " clip-rule="nonzero"/></clipPath><clipPath id="c19e848534"><path d="M 50.726562 120.726562 L 173.292969 88.679688 L 205.554688 212.082031 L 82.988281 244.125 Z M 50.726562 120.726562 " clip-rule="nonzero"/></clipPath><clipPath id="3ab699ae20"><path d="M 50.726562 120.726562 L 173.292969 88.679688 L 205.554688 212.082031 L 82.988281 244.125 Z M 50.726562 120.726562 " clip-rule="nonzero"/></clipPath><clipPath id="cd918998ce"><path d="M 50.726562 120.726562 L 173.292969 88.679688 L 205.554688 212.082031 L 82.988281 244.125 Z M 50.726562 120.726562 " clip-rule="nonzero"/></clipPath><clipPath id="a6ffac8ad3"><path d="M 125 146 L 145 146 L 145 167 L 125 167 Z M 125 146 " clip-rule="nonzero"/></clipPath><clipPath id="845d339f0b"><path d="M 50.726562 120.726562 L 173.292969 88.679688 L 205.554688 212.082031 L 82.988281 244.125 Z M 50.726562 120.726562 " clip-rule="nonzero"/></clipPath><clipPath id="8e04f8c9c0"><path d="M 50.726562 120.726562 L 173.292969 88.679688 L 205.554688 212.082031 L 82.988281 244.125 Z M 50.726562 120.726562 " clip-rule="nonzero"/></clipPath><clipPath id="9cdbdb552a"><path d="M 50.726562 120.726562 L 173.292969 88.679688 L 205.554688 212.082031 L 82.988281 244.125 Z M 50.726562 120.726562 " clip-rule="nonzero"/></clipPath><mask id="f5957243b7"><g filter="url(#625cd55f35)"><rect x="-37.5" width="450" fill="#000000" y="-37.499999" height="449.999989" fill-opacity="0.8392"/></g></mask><clipPath id="25aab3ea9c"><path d="M 7 16 L 134 16 L 134 130 L 7 130 Z M 7 16 " clip-rule="nonzero"/></clipPath><clipPath id="4bd270775e"><path d="M 12.828125 0.886719 L 138.871094 13.65625 L 126.792969 132.839844 L 0.753906 120.070312 Z M 12.828125 0.886719 " clip-rule="nonzero"/></clipPath><clipPath id="26be3d7c00"><path d="M 12.828125 0.886719 L 138.871094 13.65625 L 126.792969 132.839844 L 0.753906 120.070312 Z M 12.828125 0.886719 " clip-rule="nonzero"/></clipPath><clipPath id="9c9c8820e7"><path d="M 12.828125 0.886719 L 138.871094 13.65625 L 126.792969 132.839844 L 0.753906 120.070312 Z M 12.828125 0.886719 " clip-rule="nonzero"/></clipPath><clipPath id="8bf10007f2"><path d="M 7 20 L 124 20 L 124 130 L 7 130 Z M 7 20 " clip-rule="nonzero"/></clipPath><clipPath id="32e82710dd"><path d="M 12.828125 0.886719 L 138.871094 13.65625 L 126.792969 132.839844 L 0.753906 120.070312 Z M 12.828125 0.886719 " clip-rule="nonzero"/></clipPath><clipPath id="ee61a360f7"><path d="M 12.828125 0.886719 L 138.871094 13.65625 L 126.792969 132.839844 L 0.753906 120.070312 Z M 12.828125 0.886719 " clip-rule="nonzero"/></clipPath><clipPath id="c1ee73981c"><path d="M 12.828125 0.886719 L 138.871094 13.65625 L 126.792969 132.839844 L 0.753906 120.070312 Z M 12.828125 0.886719 " clip-rule="nonzero"/></clipPath><clipPath id="bb43a93e51"><path d="M 40 5 L 111 5 L 111 44 L 40 44 Z M 40 5 " clip-rule="nonzero"/></clipPath><clipPath id="bdb00e06d8"><path d="M 12.828125 0.886719 L 138.871094 13.65625 L 126.792969 132.839844 L 0.753906 120.070312 Z M 12.828125 0.886719 " clip-rule="nonzero"/></clipPath><clipPath id="d994fdfe9e"><path d="M 12.828125 0.886719 L 138.871094 13.65625 L 126.792969 132.839844 L 0.753906 120.070312 Z M 12.828125 0.886719 " clip-rule="nonzero"/></clipPath><clipPath id="6df5ac1807"><path d="M 12.828125 0.886719 L 138.871094 13.65625 L 126.792969 132.839844 L 0.753906 120.070312 Z M 12.828125 0.886719 " clip-rule="nonzero"/></clipPath><clipPath id="bb5824dd3c"><path d="M 41 22 L 97 22 L 97 96 L 41 96 Z M 41 22 " clip-rule="nonzero"/></clipPath><clipPath id="1632e5f523"><path d="M 12.828125 0.886719 L 138.871094 13.65625 L 126.792969 132.839844 L 0.753906 120.070312 Z M 12.828125 0.886719 " clip-rule="nonzero"/></clipPath><clipPath id="8c30847979"><path d="M 12.828125 0.886719 L 138.871094 13.65625 L 126.792969 132.839844 L 0.753906 120.070312 Z M 12.828125 0.886719 " clip-rule="nonzero"/></clipPath><clipPath id="7295077608"><path d="M 12.828125 0.886719 L 138.871094 13.65625 L 126.792969 132.839844 L 0.753906 120.070312 Z M 12.828125 0.886719 " clip-rule="nonzero"/></clipPath><clipPath id="034e7db366"><path d="M 47 63 L 66 63 L 66 89 L 47 89 Z M 47 63 " clip-rule="nonzero"/></clipPath><clipPath id="db480fc567"><path d="M 12.828125 0.886719 L 138.871094 13.65625 L 126.792969 132.839844 L 0.753906 120.070312 Z M 12.828125 0.886719 " clip-rule="nonzero"/></clipPath><clipPath id="6b61b5cd7c"><path d="M 12.828125 0.886719 L 138.871094 13.65625 L 126.792969 132.839844 L 0.753906 120.070312 Z M 12.828125 0.886719 " clip-rule="nonzero"/></clipPath><clipPath id="1a51c920a9"><path d="M 12.828125 0.886719 L 138.871094 13.65625 L 126.792969 132.839844 L 0.753906 120.070312 Z M 12.828125 0.886719 " clip-rule="nonzero"/></clipPath><clipPath id="ba6989d21d"><path d="M 40 19 L 111 19 L 111 42 L 40 42 Z M 40 19 " clip-rule="nonzero"/></clipPath><clipPath id="329eb00d8e"><path d="M 12.828125 0.886719 L 138.871094 13.65625 L 126.792969 132.839844 L 0.753906 120.070312 Z M 12.828125 0.886719 " clip-rule="nonzero"/></clipPath><clipPath id="56f6574127"><path d="M 12.828125 0.886719 L 138.871094 13.65625 L 126.792969 132.839844 L 0.753906 120.070312 Z M 12.828125 0.886719 " clip-rule="nonzero"/></clipPath><clipPath id="864c83d6fd"><path d="M 12.828125 0.886719 L 138.871094 13.65625 L 126.792969 132.839844 L 0.753906 120.070312 Z M 12.828125 0.886719 " clip-rule="nonzero"/></clipPath><clipPath id="767294bccf"><rect x="0" width="140" y="0" height="133"/></clipPath><clipPath id="35de5e5ab8"><path d="M 118.246094 194.019531 L 246.65625 194.019531 L 246.65625 315.535156 L 118.246094 315.535156 Z M 118.246094 194.019531 " clip-rule="nonzero"/></clipPath><mask id="198e4d0530"><g filter="url(#625cd55f35)"><rect x="-37.5" width="450" fill="#000000" y="-37.499999" height="449.999989" fill-opacity="0.149"/></g></mask><clipPath id="aa042333c1"><path d="M 0 0.078125 L 74 0.078125 L 74 79 L 0 79 Z M 0 0.078125 " clip-rule="nonzero"/></clipPath><clipPath id="3907c25efa"><rect x="0" width="75" y="0" height="80"/></clipPath></defs><g clip-path="url(#dd5692e15a)"><g clip-path="url(#b3250eac5b)"><g clip-path="url(#ae57ae1943)"><path fill="#79a1b8" d="M 355.421875 233.242188 C 360.71875 199.269531 353.046875 165.054688 341.710938 133.058594 C 331.6875 104.832031 317.535156 77.722656 296.445312 56.1875 C 286.257812 45.726562 274.296875 35.210938 260.757812 29.519531 C 247.28125 23.851562 232.429688 21.644531 217.847656 22.699219 C 203.074219 23.683594 188.335938 28.203125 175.75 35.933594 C 161.457031 44.632812 150.664062 57.390625 139.691406 69.859375 C 114.800781 98.214844 84.136719 120.628906 58.996094 148.890625 C 36.742188 173.871094 19.082031 205.089844 20.398438 239.625 C 21.707031 272.574219 42.78125 298.777344 70.445312 314.964844 C 102.117188 333.375 139.644531 338.992188 175.875 337.179688 C 194.042969 336.328125 212.082031 333.628906 229.960938 330.160156 C 247.628906 326.6875 265.429688 323.042969 282.644531 317.828125 C 298.242188 313.113281 312.90625 306.195312 324.671875 294.722656 C 335.871094 283.839844 344.265625 270.160156 349.644531 255.476562 C 352.324219 248.164062 354.128906 240.6875 355.421875 233.242188 " fill-opacity="1" fill-rule="nonzero"/></g></g></g><g clip-path="url(#35cacbc95f)"><g clip-path="url(#926d885ec0)"><g clip-path="url(#7767186d67)"><g clip-path="url(#baf9100a6d)"><g clip-path="url(#83d3e9bb0a)"><g clip-path="url(#6f88f0f584)"><path fill="#e4e4e3" d="M 172.886719 88.832031 C 171.109375 90.835938 159.519531 110.550781 157.078125 114.871094 C 156.765625 115.421875 156.453125 115.976562 156.140625 116.527344 C 155 118.550781 153.855469 120.574219 152.714844 122.597656 L 154.539062 123.488281 C 158.632812 115.949219 172.261719 91.171875 173.289062 89.101562 C 173.414062 88.847656 173.074219 88.617188 172.886719 88.832031 Z M 161.703125 134.96875 C 160.421875 132.816406 158.359375 131.265625 156.347656 129.769531 C 154.65625 128.507812 152.960938 127.246094 151.265625 125.984375 C 150.070312 125.09375 148.863281 124.199219 147.507812 123.582031 C 144.859375 122.375 141.679688 121.867188 138.792969 122.246094 C 137.355469 122.4375 136.089844 123.300781 135.320312 124.527344 C 127.601562 136.828125 119.984375 149.609375 113.210938 162.484375 C 107.253906 173.8125 99.660156 187.300781 93.203125 198.597656 C 92.621094 199.617188 92.488281 200.839844 92.855469 201.953125 C 93.691406 204.496094 95.402344 206.75 97.445312 208.515625 C 100 210.714844 103.058594 212.238281 106.121094 213.644531 C 109.019531 214.972656 112.367188 216.21875 115.328125 215.332031 C 115.925781 215.152344 116.4375 214.757812 116.769531 214.230469 C 117.863281 212.480469 119.070312 210.582031 120.128906 208.875 C 121.375 206.871094 122.355469 204.695312 123.71875 202.761719 C 124.429688 201.753906 135.089844 183.132812 139.761719 176.355469 C 141.992188 173.117188 144.289062 169.601562 146.238281 166.179688 C 146.765625 165.25 147.257812 164.304688 147.714844 163.339844 C 148.679688 161.289062 149.761719 159.292969 150.878906 157.316406 C 154.316406 151.234375 157.75 145.140625 161.617188 139.320312 C 162.488281 138.011719 162.507812 136.320312 161.703125 134.96875 Z M 108.492188 221.1875 C 107.828125 222.539062 107.089844 223.941406 106.726562 224.46875 C 105.179688 226.707031 103.660156 229.027344 102.113281 231.261719 C 100.910156 231.566406 99.675781 231.871094 98.449219 231.710938 C 97.8125 231.625 97.199219 231.421875 96.597656 231.191406 C 92.941406 229.800781 89.625 227.511719 87.027344 224.585938 C 86.0625 223.5 84.414062 222.058594 85.035156 220.746094 C 86.71875 217.191406 88.585938 213.726562 90.621094 210.367188 L 108.492188 221.1875 " fill-opacity="1" fill-rule="nonzero"/></g></g></g></g></g></g><g clip-path="url(#18e6061788)"><g clip-path="url(#817aab3378)"><g clip-path="url(#ec23362e0a)"><g clip-path="url(#2552c14e2d)"><path fill="#c3d7df" d="M 143.453125 164.957031 C 138.207031 174.191406 134.867188 177.96875 129.894531 186.75 C 127.164062 191.574219 124.855469 196.625 122.144531 201.460938 C 120.214844 204.898438 118.304688 208.375 115.984375 211.566406 C 114.386719 211.921875 112.714844 211.746094 111.117188 211.402344 C 106.046875 210.3125 101.367188 207.480469 98.050781 203.496094 C 97.152344 202.414062 96.308594 201.097656 96.507812 199.707031 C 96.660156 198.625 97.179688 197.605469 97.714844 196.65625 C 106.554688 181.046875 117.851562 164.402344 126.167969 148.507812 C 127.746094 149.507812 129.308594 150.765625 130.648438 152.0625 C 131.65625 153.039062 132.59375 154.097656 133.722656 154.929688 C 135.761719 156.433594 138.421875 157.21875 139.875 159.296875 C 141.035156 160.953125 141.78125 163.820312 143.453125 164.957031 " fill-opacity="1" fill-rule="nonzero"/></g></g></g></g><g clip-path="url(#502bdecee3)"><g clip-path="url(#b93de53ee7)"><g clip-path="url(#731ccd3b05)"><g clip-path="url(#2004cc7ef3)"><path fill="#6a739c" d="M 134.328125 135.777344 C 132.773438 135.320312 131.335938 134.480469 130.179688 133.34375 L 129.886719 133.644531 C 131.089844 134.828125 134.328125 135.777344 134.328125 135.777344 Z M 128.023438 136.75 L 127.714844 137.035156 C 128.488281 137.871094 129.464844 138.496094 130.550781 138.839844 C 130.550781 138.839844 128.746094 137.53125 128.023438 136.75 Z M 126.253906 139.804688 L 125.941406 140.085938 C 126.683594 140.902344 127.625 141.511719 128.671875 141.859375 C 128.671875 141.859375 126.945312 140.566406 126.253906 139.804688 Z M 124.324219 142.902344 L 124.011719 143.183594 C 124.710938 143.957031 125.585938 144.59375 126.539062 145.019531 C 126.539062 145.019531 124.984375 143.632812 124.324219 142.902344 Z M 122.132812 146.789062 L 121.839844 147.089844 C 123.648438 148.847656 125.738281 150.253906 128.054688 151.261719 C 128.054688 151.261719 123.90625 148.511719 122.132812 146.789062 Z M 119.742188 151.636719 L 119.394531 151.875 C 120.070312 152.859375 120.992188 153.660156 122.066406 154.1875 C 122.066406 154.1875 120.375 152.5625 119.742188 151.636719 Z M 116.917969 156.121094 L 116.660156 156.453125 C 118.007812 157.496094 119.492188 158.355469 121.066406 159 C 121.066406 159 118.234375 157.140625 116.917969 156.121094 Z M 114.390625 160.714844 L 114.066406 160.976562 C 114.929688 162.042969 116.128906 162.84375 117.445312 163.234375 C 117.445312 163.234375 115.203125 161.714844 114.390625 160.714844 Z M 111.375 166.082031 L 111.039062 166.335938 C 112.011719 167.609375 113.382812 168.59375 114.902344 169.101562 C 114.902344 169.101562 112.292969 167.289062 111.375 166.082031 Z M 115.914062 175.054688 C 114.246094 174.015625 112.628906 172.855469 111.109375 171.609375 C 110.40625 171.035156 109.695312 170.402344 109.402344 169.566406 L 109.003906 169.707031 C 109.335938 170.640625 110.09375 171.320312 110.839844 171.933594 C 112.375 173.191406 115.914062 175.054688 115.914062 175.054688 Z M 110.214844 177.714844 C 108.992188 176.933594 107.832031 176.035156 106.765625 175.050781 L 106.480469 175.359375 C 107.5625 176.363281 110.214844 177.714844 110.214844 177.714844 Z M 103.582031 180.402344 L 103.179688 180.519531 C 103.632812 182.054688 104.835938 183.375 106.320312 183.96875 C 106.320312 183.96875 104 181.816406 103.582031 180.402344 Z M 99.308594 188 L 98.980469 188.265625 C 99.941406 189.453125 101.082031 190.472656 102.367188 191.292969 C 102.367188 191.292969 100.238281 189.152344 99.308594 188 Z M 156.847656 126.515625 C 156.917969 125.625 156.5625 124.757812 155.898438 124.164062 C 154.714844 123.105469 153.386719 122.4375 151.738281 121.902344 C 151.304688 121.761719 150.835938 121.644531 150.390625 121.753906 C 149.957031 121.863281 149.605469 122.175781 149.273438 122.476562 C 147.296875 124.28125 145.472656 126.105469 143.597656 128.011719 C 143.390625 129.117188 143.996094 130.222656 144.765625 131.039062 C 145.777344 132.117188 147.074219 132.875 148.351562 133.613281 C 149.339844 134.183594 150.339844 134.761719 151.445312 135.035156 C 152.554688 135.304688 153.796875 135.234375 154.730469 134.578125 C 155.292969 132.875 155.847656 131.171875 156.410156 129.46875 C 156.710938 128.5625 156.773438 127.519531 156.847656 126.515625 Z M 153.550781 139.03125 C 146.308594 137.085938 139.898438 131.898438 136.152344 125.40625 C 136.035156 126.261719 136.46875 127.082031 136.929688 127.8125 C 140.8125 134 147.398438 138.421875 154.597656 139.679688 C 155.875 139.902344 157.246094 140.019531 158.417969 139.460938 C 156.804688 140.058594 155.210938 139.476562 153.550781 139.03125 Z M 120.648438 208.011719 C 120.480469 208.300781 120.308594 208.589844 120.128906 208.875 C 119.070312 210.582031 117.863281 212.480469 116.769531 214.230469 C 116.4375 214.757812 115.925781 215.152344 115.328125 215.332031 C 112.367188 216.21875 109.019531 214.972656 106.121094 213.644531 C 103.058594 212.238281 100 210.714844 97.445312 208.515625 C 95.402344 206.75 93.691406 204.496094 92.855469 201.953125 C 92.488281 200.839844 92.621094 199.617188 93.203125 198.597656 C 94.113281 197.003906 95.050781 195.363281 95.996094 193.695312 L 95.851562 193.609375 C 92.984375 192.636719 89.9375 192.1875 86.910156 192.300781 C 86.273438 192.324219 85.628906 192.375 85.019531 192.574219 C 83.246094 193.164062 82.097656 195.015625 81.925781 196.875 C 81.753906 198.738281 82.40625 200.585938 83.316406 202.21875 C 84.941406 205.140625 87.367188 207.535156 89.878906 209.738281 C 90.121094 209.949219 90.367188 210.15625 90.625 210.367188 L 108.480469 221.179688 C 111.339844 222.410156 114.375 223.074219 117.511719 223.574219 C 119.773438 223.933594 122.132812 224.097656 124.320312 223.425781 C 125.296875 223.125 126.550781 221.78125 127.128906 220.9375 C 128.289062 219.234375 126.488281 211.117188 120.648438 208.011719 Z M 104.347656 227.972656 C 105.910156 229.761719 107.0625 231.910156 107.660156 234.210938 C 107.902344 235.152344 108.027344 236.246094 107.425781 237.007812 C 107.128906 237.382812 106.691406 237.621094 106.25 237.792969 C 104.355469 238.527344 102.226562 238.210938 100.25 237.746094 C 98.171875 237.257812 96.132812 236.617188 94.148438 235.832031 C 93.066406 235.398438 91.996094 234.925781 90.976562 234.359375 C 90.109375 233.875 89.28125 233.328125 88.457031 232.785156 C 87.445312 232.113281 86.429688 231.445312 85.417969 230.773438 C 84.191406 229.964844 82.960938 229.152344 81.832031 228.210938 C 80.925781 227.457031 80.085938 226.628906 79.324219 225.730469 C 78.4375 224.6875 77.640625 223.515625 77.328125 222.1875 C 77.011719 220.855469 77.25 219.328125 78.210938 218.351562 C 78.738281 217.816406 79.4375 217.480469 80.148438 217.253906 C 82.160156 216.613281 84.414062 216.777344 86.308594 217.707031 L 86.484375 217.808594 C 85.988281 218.78125 85.503906 219.757812 85.035156 220.746094 C 84.414062 222.058594 86.0625 223.5 87.027344 224.585938 C 89.625 227.511719 92.941406 229.800781 96.597656 231.191406 C 97.199219 231.421875 97.8125 231.625 98.449219 231.710938 C 99.675781 231.871094 100.910156 231.566406 102.113281 231.261719 C 102.863281 230.179688 103.605469 229.078125 104.347656 227.976562 L 104.347656 227.972656 " fill-opacity="1" fill-rule="nonzero"/></g></g></g></g><g clip-path="url(#7b2477cacd)"><g clip-path="url(#c31241c128)"><g clip-path="url(#3acfa69fd1)"><g clip-path="url(#959c32c795)"><path fill="#aac1dd" d="M 87.929688 230.027344 C 84.171875 227.421875 80.152344 224.46875 78.429688 220.234375 C 79.132812 223.875 82.042969 226.65625 85.011719 228.875 C 87.863281 231.007812 90.917969 232.867188 94.121094 234.421875 C 95.882812 235.277344 97.707031 236.050781 99.632812 236.410156 C 101.558594 236.769531 103.605469 236.703125 105.40625 235.929688 C 102.296875 236.5 99.113281 235.832031 96.164062 234.6875 C 93.21875 233.542969 90.527344 231.828125 87.929688 230.027344 " fill-opacity="1" fill-rule="nonzero"/></g></g></g></g><g clip-path="url(#b30b552306)"><g clip-path="url(#c19e848534)"><g clip-path="url(#3ab699ae20)"><g clip-path="url(#cd918998ce)"><path fill="#aac1dd" d="M 89.339844 206.007812 C 86.578125 203.699219 85.128906 200.148438 83.605469 196.886719 C 84.359375 200.703125 86.410156 204.246094 89.332031 206.808594 C 90.316406 207.671875 91.394531 208.421875 92.46875 209.171875 C 94.117188 210.324219 95.769531 211.472656 97.421875 212.625 C 98.859375 213.628906 100.304688 214.636719 101.8125 215.53125 C 105.484375 217.703125 109.515625 219.191406 113.519531 220.667969 C 116.140625 221.636719 120.339844 222.308594 123.199219 222.023438 C 120.949219 221.929688 114.871094 220.75 110.097656 218.648438 C 102.417969 215.273438 93.675781 209.636719 89.339844 206.007812 " fill-opacity="1" fill-rule="nonzero"/></g></g></g></g><g clip-path="url(#a6ffac8ad3)"><g clip-path="url(#845d339f0b)"><g clip-path="url(#8e04f8c9c0)"><g clip-path="url(#9cdbdb552a)"><path fill="#aac1dd" d="M 144.019531 161.445312 C 143.636719 160.285156 142.625 159.46875 141.765625 158.605469 C 138.761719 155.589844 137.148438 151.355469 133.957031 148.539062 C 132.730469 147.457031 131.207031 146.585938 129.566406 146.574219 C 127.375 146.5625 126.074219 147.957031 125.785156 149.691406 C 127.03125 150.582031 128.054688 151.261719 128.054688 151.261719 C 127.253906 150.910156 126.480469 150.511719 125.738281 150.070312 C 125.675781 150.835938 125.800781 151.648438 126.128906 152.425781 C 127.980469 156.8125 133.902344 158.0625 136.351562 162.144531 C 137.199219 163.5625 137.679688 165.359375 139.121094 166.160156 C 140.148438 166.730469 141.484375 166.609375 142.460938 165.957031 C 143.433594 165.304688 144.042969 164.175781 144.167969 163.011719 C 144.222656 162.484375 144.1875 161.945312 144.019531 161.445312 " fill-opacity="1" fill-rule="nonzero"/></g></g></g></g><g mask="url(#f5957243b7)"><g transform="matrix(1, 0, 0, 1, 177, 79)"><g clip-path="url(#767294bccf)"><g clip-path="url(#25aab3ea9c)"><g clip-path="url(#4bd270775e)"><g clip-path="url(#26be3d7c00)"><g clip-path="url(#9c9c8820e7)"><path fill="#1f4a7a" d="M 128.894531 109.734375 C 128.304688 115.320312 123.835938 119.890625 120.761719 121.714844 C 115.398438 124.902344 111.152344 127.84375 105.082031 129.277344 C 103.851562 129.566406 100.1875 129.859375 99.007812 129.410156 C 99.007812 129.410156 99.003906 129.40625 99.003906 129.40625 C 97.265625 129.765625 95.402344 129.300781 93.660156 128.820312 C 72.511719 123.007812 51.660156 116.105469 31.222656 108.148438 C 26.175781 106.183594 21.085938 104.117188 16.753906 100.875 C 12.414062 97.632812 8.839844 93.03125 7.941406 87.691406 C 7.488281 85.003906 7.722656 82.25 7.957031 79.535156 C 8.90625 68.546875 9.859375 57.558594 10.808594 46.570312 C 11.324219 40.632812 10.386719 31.519531 16.539062 28.332031 C 16.527344 28.316406 16.515625 28.300781 16.5 28.285156 C 19.574219 26.847656 23.714844 24.453125 26.789062 23.015625 C 32.660156 20.277344 38.699219 17.492188 45.164062 17.046875 C 48.050781 16.84375 50.945312 17.121094 53.820312 17.460938 C 77.519531 20.269531 100.90625 27.082031 121.800781 38.617188 C 131.773438 44.125 133.570312 55.121094 133.109375 59.648438 C 131.246094 78.042969 130.832031 91.347656 128.894531 109.734375 Z M 128.894531 109.734375 " fill-opacity="1" fill-rule="nonzero"/></g></g></g></g><g clip-path="url(#8bf10007f2)"><g clip-path="url(#32e82710dd)"><g clip-path="url(#ee61a360f7)"><g clip-path="url(#c1ee73981c)"><path fill="#337096" d="M 110.460938 68.28125 C 110.34375 86.472656 110.179688 104.988281 104.699219 122.339844 C 103.820312 125.128906 102.503906 128.191406 99.757812 129.195312 C 97.8125 129.90625 95.660156 129.371094 93.664062 128.820312 C 72.515625 123.011719 51.664062 116.105469 31.226562 108.148438 C 26.179688 106.183594 21.089844 104.117188 16.753906 100.875 C 12.417969 97.632812 8.84375 93.03125 7.945312 87.691406 C 7.488281 85.003906 7.722656 82.25 7.957031 79.535156 C 8.910156 68.546875 9.859375 57.558594 10.8125 46.570312 C 11.390625 39.882812 10.128906 29.160156 19.238281 27.425781 C 21.3125 27.027344 23.445312 27.503906 25.5 27.976562 C 50.136719 33.640625 75.023438 39.390625 97.722656 50.515625 C 102.808594 53.007812 108.207031 56.28125 109.847656 61.707031 C 110.484375 63.824219 110.476562 66.070312 110.460938 68.28125 Z M 122.964844 73.597656 C 123.589844 67.425781 124.082031 56.539062 121.875 52.078125 C 119.671875 47.613281 116.136719 44.125 111.597656 42.082031 C 98.472656 36.175781 83.242188 30.472656 69.910156 26.625 C 45.679688 19.636719 45.5 20.175781 33.433594 22.023438 C 43.871094 20.585938 54.445312 23.492188 64.617188 26.375 C 81.421875 31.136719 98.433594 35.984375 113.507812 44.800781 C 116.65625 46.644531 123.484375 52.019531 122.484375 61.902344 C 120.9375 77.167969 120.199219 93.484375 117.566406 108.601562 C 116.640625 113.90625 115.394531 119.53125 111.527344 123.28125 C 113.160156 123.113281 115.777344 119.875 116.933594 116.667969 C 119.691406 109.03125 122.28125 80.324219 122.964844 73.597656 Z M 33.433594 22.023438 C 33.058594 22.074219 32.679688 22.128906 32.300781 22.195312 C 32.691406 22.136719 33.070312 22.078125 33.433594 22.023438 Z M 33.433594 22.023438 " fill-opacity="1" fill-rule="nonzero"/></g></g></g></g><g clip-path="url(#bb43a93e51)"><g clip-path="url(#bdb00e06d8)"><g clip-path="url(#d994fdfe9e)"><g clip-path="url(#6df5ac1807)"><path fill="#392823" d="M 92.992188 37.3125 C 93.261719 37.691406 93.390625 38.191406 93.246094 38.632812 C 93.082031 39.128906 92.621094 39.453125 92.171875 39.722656 C 92.007812 39.820312 91.832031 39.917969 91.644531 39.949219 C 91.503906 39.972656 91.359375 39.957031 91.21875 39.941406 C 89.730469 39.765625 88.226562 39.425781 86.996094 38.570312 C 83.984375 36.476562 84.132812 31.777344 84.34375 27.753906 C 84.449219 25.859375 84.546875 23.96875 84.648438 22.078125 C 84.746094 20.222656 84.753906 18.117188 83.421875 16.828125 C 82.597656 16.027344 81.425781 15.722656 80.3125 15.449219 C 77.433594 14.742188 74.554688 14.03125 71.675781 13.320312 C 70.367188 13 69.0625 12.675781 67.753906 12.355469 C 65.140625 11.710938 62.523438 11.066406 59.882812 10.546875 C 59.273438 10.425781 58.617188 10.316406 58.050781 10.566406 C 57.085938 10.984375 56.804688 12.191406 56.65625 13.230469 C 56.277344 15.910156 55.992188 18.597656 55.796875 21.292969 C 55.695312 22.640625 55.621094 23.992188 55.566406 25.34375 C 55.523438 26.445312 55.230469 29.292969 53.078125 28.953125 C 50.695312 28.574219 50.464844 28.527344 47.433594 27.597656 C 46.941406 27.445312 46.480469 27.105469 46.273438 26.632812 C 46.023438 26.058594 46.269531 25.398438 46.5625 24.847656 C 46.96875 24.078125 47.546875 23.300781 48.394531 23.097656 C 49.011719 22.949219 49.160156 23.15625 49.746094 23.34375 C 50.039062 23.441406 51.3125 23.78125 51.546875 22.171875 C 51.632812 21.578125 51.585938 20.972656 51.613281 20.371094 C 51.671875 19.046875 51.746094 17.722656 51.824219 16.402344 C 51.960938 14.144531 52.886719 7.96875 53.28125 7.265625 C 53.855469 6.246094 55.023438 5.671875 56.183594 5.535156 C 57.34375 5.398438 58.515625 5.628906 59.65625 5.886719 C 61.402344 6.277344 63.136719 6.722656 64.871094 7.167969 C 70.257812 8.550781 75.644531 9.9375 81.03125 11.316406 C 83.410156 11.929688 85.953125 12.636719 87.535156 14.523438 C 88.929688 16.183594 89.304688 18.457031 89.453125 20.617188 C 89.589844 22.636719 89.046875 29.835938 88.875 31.847656 C 88.757812 33.261719 88.636719 34.894531 89.660156 35.871094 C 90.128906 36.320312 90.886719 36.421875 91.488281 36.664062 C 92.089844 36.90625 92.617188 36.789062 92.992188 37.3125 Z M 49.035156 21.421875 C 49.195312 21.285156 49.359375 21.152344 49.472656 20.976562 C 49.65625 20.679688 49.617188 20.347656 49.625 20 C 48.789062 19.867188 46.964844 19.570312 46.128906 19.433594 C 45.839844 19.386719 45.542969 19.34375 45.257812 19.390625 C 45.007812 19.433594 44.777344 19.542969 44.546875 19.65625 C 43.25 20.296875 42.0625 21.066406 40.859375 21.871094 C 40.824219 22.066406 40.792969 22.257812 40.757812 22.449219 C 40.746094 22.503906 40.738281 22.5625 40.765625 22.609375 C 40.796875 22.671875 40.867188 22.691406 40.933594 22.710938 C 41.414062 22.839844 41.894531 22.972656 42.375 23.101562 C 42.667969 22.753906 43.003906 22.441406 43.421875 22.285156 C 44.105469 22.023438 44.867188 22.214844 45.578125 22.378906 C 45.761719 22.425781 45.945312 22.460938 46.128906 22.5 C 46.128906 22.5 46.128906 22.5 46.132812 22.5 C 46.5625 22.589844 46.996094 22.671875 47.429688 22.742188 C 47.960938 22.300781 48.496094 21.859375 49.035156 21.421875 Z M 110.082031 39.125 C 108.804688 38.585938 108.0625 38.273438 106.785156 37.734375 C 106.53125 37.628906 106.261719 37.519531 105.988281 37.539062 C 105.726562 37.554688 105.484375 37.691406 105.253906 37.820312 C 103.808594 38.644531 102.359375 39.464844 100.914062 40.289062 C 100.859375 40.589844 100.769531 40.925781 100.710938 41.226562 C 100.703125 41.269531 100.695312 41.320312 100.722656 41.359375 C 100.742188 41.390625 100.773438 41.40625 100.808594 41.421875 C 102.328125 42.117188 103.886719 42.730469 105.507812 43.140625 C 105.605469 43.164062 105.703125 43.191406 105.800781 43.183594 C 105.957031 43.175781 106.09375 43.097656 106.230469 43.019531 C 107.378906 42.367188 108.496094 41.65625 109.578125 40.890625 C 109.683594 40.8125 109.792969 40.734375 109.859375 40.621094 C 109.90625 40.535156 109.929688 40.433594 109.949219 40.335938 C 110.023438 39.949219 110.007812 39.511719 110.082031 39.125 Z M 110.082031 39.125 " fill-opacity="1" fill-rule="nonzero"/></g></g></g></g><g clip-path="url(#bb5824dd3c)"><g clip-path="url(#1632e5f523)"><g clip-path="url(#8c30847979)"><g clip-path="url(#7295077608)"><path fill="#e9e4e0" d="M 73.285156 69.683594 C 74.703125 74.945312 74.742188 80.574219 73.40625 85.859375 C 72.785156 88.308594 71.824219 90.765625 70.011719 92.53125 C 68.8125 93.695312 67.292969 94.503906 65.699219 95.015625 C 58.554688 97.316406 50.347656 93.433594 46.335938 87.085938 C 42.328125 80.742188 42.050781 72.554688 44.140625 65.34375 C 45.203125 61.679688 47.71875 56.839844 51.828125 55.9375 C 55.679688 55.089844 61.835938 56.339844 65.226562 58.152344 C 69.480469 60.425781 72.027344 65.023438 73.285156 69.683594 Z M 47.679688 27.1875 C 47.730469 26.238281 48.074219 25.332031 48.53125 24.503906 C 48.738281 24.128906 49.105469 23.757812 49.257812 23.367188 C 49.429688 22.925781 48.726562 22.917969 48.421875 22.882812 C 47.464844 22.765625 46.515625 22.601562 45.574219 22.382812 C 44.863281 22.21875 44.101562 22.027344 43.417969 22.285156 C 42.894531 22.484375 42.503906 22.914062 42.164062 23.359375 C 41.484375 24.253906 40.925781 25.335938 41.039062 26.453125 C 41.046875 26.507812 41.050781 26.558594 41.082031 26.601562 C 41.128906 26.667969 41.210938 26.691406 41.289062 26.714844 C 41.804688 26.847656 42.324219 26.984375 42.839844 27.117188 C 44.34375 27.507812 45.847656 27.902344 47.378906 28.140625 C 47.65625 27.929688 47.660156 27.53125 47.679688 27.1875 Z M 95.839844 38.242188 C 95.539062 37.9375 95.140625 37.753906 94.746094 37.582031 C 93.558594 37.058594 92.257812 36.589844 91.039062 36.125 C 90.355469 36.445312 89.820312 37.039062 89.472656 37.710938 C 89.128906 38.386719 88.964844 39.140625 88.886719 39.894531 C 88.882812 39.945312 88.878906 40 88.902344 40.042969 C 88.925781 40.09375 88.980469 40.125 89.027344 40.152344 C 89.96875 40.648438 90.988281 40.964844 92.003906 41.277344 C 92.382812 41.394531 92.761719 41.511719 93.140625 41.628906 C 93.265625 41.667969 93.402344 41.707031 93.535156 41.691406 C 93.644531 41.675781 93.746094 41.625 93.847656 41.570312 C 94.699219 41.101562 95.421875 40.398438 95.917969 39.566406 C 96.136719 39.199219 96.140625 38.546875 95.839844 38.242188 Z M 95.839844 38.242188 " fill-opacity="1" fill-rule="nonzero"/></g></g></g></g><g clip-path="url(#034e7db366)"><g clip-path="url(#db480fc567)"><g clip-path="url(#6b61b5cd7c)"><g clip-path="url(#1a51c920a9)"><path fill="#337096" d="M 65.726562 81.019531 C 64.007812 80.574219 62.289062 80.132812 60.570312 79.683594 C 60.25 82.507812 59.871094 85.324219 59.433594 88.128906 C 57.457031 87.425781 55.484375 86.722656 53.511719 86.019531 C 53.214844 85.914062 52.890625 85.785156 52.75 85.5 C 52.652344 85.304688 52.667969 85.074219 52.683594 84.855469 C 52.863281 82.5 53.042969 80.144531 53.226562 77.789062 C 52.910156 77.707031 52.597656 77.625 52.285156 77.546875 C 51.136719 77.246094 48.488281 77.109375 47.917969 75.84375 C 47.652344 75.25 48.800781 69.851562 48.535156 69.796875 C 50.277344 70.171875 52.011719 70.566406 53.746094 70.972656 C 53.78125 70.507812 53.816406 70.039062 53.851562 69.574219 C 53.960938 68.15625 53.515625 64.433594 55.035156 63.855469 C 56.339844 63.359375 60.332031 65.269531 61.703125 65.652344 C 61.589844 68.058594 61.433594 70.457031 61.234375 72.859375 C 62.9375 73.355469 65.449219 74.195312 65.921875 74.320312 C 65.894531 74.878906 65.828125 75.378906 65.84375 75.605469 C 65.953125 77.410156 65.914062 79.222656 65.726562 81.019531 Z M 65.726562 81.019531 " fill-opacity="1" fill-rule="nonzero"/></g></g></g></g><g clip-path="url(#ba6989d21d)"><g clip-path="url(#329eb00d8e)"><g clip-path="url(#56f6574127)"><g clip-path="url(#864c83d6fd)"><path fill="#a5a5a4" d="M 51.550781 22.167969 C 51.550781 22.167969 51.28125 25.753906 50.953125 26.023438 C 50.621094 26.289062 50.054688 25.929688 50.054688 25.929688 C 50.054688 25.929688 50.988281 26.363281 51.550781 22.167969 Z M 95.800781 38.210938 C 95.222656 38.199219 94.671875 38.542969 94.304688 38.996094 C 93.976562 39.40625 93.789062 39.902344 93.648438 40.402344 C 93.535156 40.808594 93.457031 41.226562 93.472656 41.652344 C 93.476562 41.664062 93.476562 41.675781 93.476562 41.6875 C 93.496094 41.6875 93.515625 41.691406 93.53125 41.691406 C 93.644531 41.675781 93.742188 41.625 93.84375 41.570312 C 94.695312 41.101562 95.417969 40.398438 95.914062 39.566406 C 96.132812 39.199219 96.136719 38.546875 95.835938 38.242188 C 95.828125 38.230469 95.8125 38.222656 95.800781 38.210938 Z M 45.253906 19.390625 C 45.003906 19.433594 44.773438 19.542969 44.546875 19.65625 C 43.246094 20.296875 42.0625 21.066406 40.855469 21.871094 C 41.683594 22.054688 42.472656 22.199219 43.265625 22.355469 C 43.3125 22.328125 43.363281 22.304688 43.417969 22.285156 C 44.101562 22.027344 44.863281 22.21875 45.574219 22.382812 C 45.757812 22.425781 45.941406 22.464844 46.125 22.503906 C 47.300781 21.828125 48.691406 20.949219 49.625 20 C 48.789062 19.867188 46.964844 19.570312 46.128906 19.433594 C 45.839844 19.386719 45.542969 19.34375 45.253906 19.390625 Z M 106.785156 37.734375 C 106.53125 37.628906 106.261719 37.519531 105.988281 37.535156 C 105.726562 37.554688 105.484375 37.6875 105.253906 37.820312 C 103.808594 38.640625 102.363281 39.464844 100.914062 40.285156 C 102.421875 40.808594 103.820312 41.292969 105.328125 41.816406 C 105.464844 41.863281 105.605469 41.910156 105.746094 41.890625 C 105.871094 41.875 105.988281 41.808594 106.09375 41.738281 C 107.464844 40.90625 108.742188 39.996094 110.082031 39.121094 C 108.804688 38.585938 108.0625 38.273438 106.785156 37.734375 Z M 106.785156 37.734375 " fill-opacity="1" fill-rule="nonzero"/></g></g></g></g></g></g></g><g clip-path="url(#35de5e5ab8)"><path fill="#2e6284" d="M 246.308594 263.316406 C 245.980469 266.476562 244.464844 268.90625 242.925781 268.742188 C 242.511719 268.699219 242.144531 268.472656 241.828125 268.105469 L 241.824219 268.109375 C 233.175781 260.894531 224.320312 268.609375 224.320312 268.609375 C 224.304688 268.589844 224.289062 268.566406 224.273438 268.546875 C 222.941406 272.644531 221.023438 276.476562 218.617188 279.941406 C 220.457031 282.007812 223.199219 283.714844 227.269531 283.976562 L 227.269531 283.980469 C 227.75 283.933594 228.175781 284.023438 228.503906 284.277344 C 229.730469 285.21875 229.15625 288.027344 227.222656 290.542969 C 225.289062 293.0625 222.726562 294.335938 221.5 293.394531 C 221.171875 293.140625 220.976562 292.753906 220.898438 292.273438 L 220.894531 292.277344 C 219.570312 288.335938 217.15625 286.113281 214.636719 284.875 C 212.183594 287.503906 209.414062 289.832031 206.382812 291.792969 C 205.914062 292.988281 202.390625 302.847656 211.316406 308.507812 L 211.3125 308.507812 C 211.757812 308.699219 212.089844 308.980469 212.257812 309.359375 C 212.878906 310.777344 211.035156 312.964844 208.128906 314.246094 C 205.226562 315.527344 202.367188 315.417969 201.742188 314.003906 C 201.578125 313.621094 201.589844 313.1875 201.75 312.730469 L 201.746094 312.734375 C 203.707031 301.632812 192.617188 297.773438 192.617188 297.773438 C 192.632812 297.730469 192.65625 297.683594 192.675781 297.640625 C 189.445312 298.398438 186.082031 298.800781 182.621094 298.800781 C 179.550781 298.800781 176.558594 298.484375 173.667969 297.886719 C 173.121094 299.859375 173.039062 302.175781 173.796875 304.851562 L 173.792969 304.851562 C 173.996094 305.289062 174.054688 305.722656 173.925781 306.117188 C 173.449219 307.589844 170.613281 307.984375 167.597656 307 C 164.578125 306.015625 162.523438 304.023438 163.003906 302.550781 C 163.132812 302.15625 163.433594 301.84375 163.855469 301.609375 L 163.851562 301.609375 C 165.949219 299.960938 167.234375 298.125 167.96875 296.285156 C 164.832031 295.171875 161.859375 293.710938 159.097656 291.949219 C 157.984375 291.964844 147.351562 292.382812 145.523438 302.902344 L 145.519531 302.902344 C 145.515625 303.386719 145.378906 303.800781 145.09375 304.097656 C 144.023438 305.21875 141.300781 304.347656 139.003906 302.152344 C 136.710938 299.957031 135.71875 297.273438 136.789062 296.152344 C 137.074219 295.855469 137.480469 295.699219 137.964844 295.671875 L 137.960938 295.667969 C 147.367188 293.59375 148.230469 284.710938 148.285156 282.183594 C 146.605469 280.066406 145.125 277.792969 143.855469 275.382812 C 142.1875 276.28125 140.578125 277.675781 139.199219 279.789062 L 139.195312 279.78125 C 139 280.226562 138.710938 280.554688 138.332031 280.714844 C 136.90625 281.316406 134.75 279.433594 133.515625 276.507812 C 132.277344 273.585938 132.433594 270.726562 133.855469 270.121094 C 134.238281 269.960938 134.671875 269.980469 135.128906 270.148438 L 135.125 270.144531 C 137.554688 270.613281 139.644531 270.445312 141.429688 269.898438 C 139.984375 265.910156 139.101562 261.652344 138.875 257.21875 C 138.632812 256.890625 131.773438 247.832031 121.921875 252.863281 L 121.921875 252.859375 C 121.53125 253.144531 121.121094 253.285156 120.710938 253.238281 C 119.171875 253.054688 118.234375 250.347656 118.609375 247.195312 C 118.984375 244.042969 120.535156 241.632812 122.070312 241.816406 C 122.484375 241.867188 122.847656 242.101562 123.160156 242.472656 L 123.160156 242.464844 C 131.707031 249.808594 140.671875 242.222656 140.671875 242.222656 C 140.679688 242.230469 140.6875 242.238281 140.691406 242.25 C 142.121094 237.519531 144.332031 233.125 147.167969 229.21875 C 145.484375 227.707031 143.1875 226.523438 140.054688 226.164062 L 140.058594 226.160156 C 139.574219 226.183594 139.152344 226.074219 138.835938 225.804688 C 137.660156 224.800781 138.375 222.027344 140.429688 219.609375 C 142.488281 217.191406 145.109375 216.042969 146.289062 217.046875 C 146.605469 217.316406 146.78125 217.714844 146.835938 218.199219 L 146.839844 218.191406 C 147.683594 221.203125 149.195312 223.273438 150.9375 224.695312 C 153.480469 222.027344 156.363281 219.679688 159.507812 217.71875 C 160.007812 216.539062 163.789062 206.773438 155.011719 200.886719 L 155.015625 200.882812 C 154.574219 200.683594 154.25 200.390625 154.09375 200.007812 C 153.507812 198.574219 155.410156 196.4375 158.34375 195.230469 C 161.28125 194.023438 164.136719 194.207031 164.722656 195.640625 C 164.878906 196.023438 164.855469 196.457031 164.683594 196.910156 L 164.6875 196.910156 C 162.472656 207.785156 173.089844 211.972656 173.417969 212.097656 C 176.382812 211.460938 179.464844 211.125 182.621094 211.125 C 186.574219 211.125 190.40625 211.652344 194.046875 212.636719 C 194.398438 210.710938 194.296875 208.507812 193.433594 206.03125 L 193.4375 206.035156 C 193.207031 205.605469 193.121094 205.179688 193.226562 204.777344 C 193.617188 203.28125 196.421875 202.714844 199.492188 203.515625 C 202.5625 204.316406 204.734375 206.179688 204.347656 207.679688 C 204.242188 208.078125 203.960938 208.410156 203.550781 208.671875 L 203.554688 208.671875 C 201.441406 210.546875 200.253906 212.578125 199.660156 214.566406 C 202.804688 215.894531 205.757812 217.585938 208.476562 219.578125 C 211.726562 218.980469 218.914062 216.6875 219.910156 208.066406 L 219.914062 208.066406 C 219.890625 207.585938 220 207.164062 220.269531 206.847656 C 221.273438 205.667969 224.042969 206.382812 226.457031 208.441406 C 228.875 210.503906 230.019531 213.128906 229.015625 214.304688 C 228.746094 214.621094 228.347656 214.796875 227.867188 214.851562 L 227.871094 214.855469 C 217.03125 217.910156 218.378906 229.585938 218.378906 229.585938 C 218.367188 229.585938 218.351562 229.585938 218.339844 229.585938 C 219.714844 231.519531 220.933594 233.570312 221.984375 235.722656 C 224.074219 234.964844 226.160156 233.535156 227.949219 231.023438 L 227.949219 231.027344 C 228.164062 230.59375 228.464844 230.277344 228.851562 230.132812 C 230.300781 229.585938 232.378906 231.554688 233.5 234.523438 C 234.617188 237.496094 234.351562 240.347656 232.902344 240.894531 C 232.515625 241.039062 232.082031 241 231.632812 240.816406 L 231.636719 240.820312 C 228.710938 240.132812 226.246094 240.40625 224.207031 241.171875 C 225.566406 245.277344 226.332031 249.652344 226.410156 254.195312 C 228.210938 256.191406 234.539062 262.128906 242.914062 257.699219 L 242.914062 257.703125 C 243.300781 257.410156 243.710938 257.261719 244.121094 257.304688 C 245.660156 257.46875 246.640625 260.160156 246.308594 263.316406 Z M 246.308594 263.316406 " fill-opacity="1" fill-rule="nonzero"/></g><path fill="#241b14" d="M 183.617188 248.550781 C 180.085938 248.550781 177.210938 251.425781 177.210938 254.964844 C 177.210938 258.5 180.085938 261.375 183.617188 261.375 C 187.148438 261.375 190.023438 258.5 190.023438 254.964844 C 190.023438 251.425781 187.148438 248.550781 183.617188 248.550781 Z M 183.617188 261.097656 C 180.238281 261.097656 177.488281 258.34375 177.488281 254.964844 C 177.488281 251.582031 180.238281 248.832031 183.617188 248.832031 C 186.996094 248.832031 189.746094 251.582031 189.746094 254.964844 C 189.746094 258.34375 186.996094 261.097656 183.617188 261.097656 Z M 138.746094 225.910156 C 138.6875 225.859375 138.683594 225.773438 138.730469 225.714844 C 138.78125 225.652344 138.871094 225.648438 138.929688 225.699219 C 140.046875 226.648438 142.585938 225.507812 144.589844 223.152344 C 145.570312 222 146.273438 220.730469 146.570312 219.582031 C 146.855469 218.464844 146.726562 217.605469 146.199219 217.15625 C 146.140625 217.105469 146.132812 217.015625 146.183594 216.957031 C 146.230469 216.898438 146.320312 216.894531 146.378906 216.941406 C 146.992188 217.464844 147.15625 218.425781 146.839844 219.652344 C 146.535156 220.839844 145.808594 222.148438 144.800781 223.335938 C 143.226562 225.1875 141.308594 226.300781 139.925781 226.300781 C 139.460938 226.300781 139.058594 226.175781 138.746094 225.910156 Z M 150.847656 224.804688 C 150.789062 224.753906 150.777344 224.667969 150.828125 224.605469 C 150.875 224.546875 150.964844 224.539062 151.023438 224.585938 C 155.453125 228.207031 161.480469 227.558594 161.539062 227.554688 C 161.613281 227.542969 161.683594 227.597656 161.695312 227.675781 C 161.703125 227.753906 161.648438 227.820312 161.570312 227.832031 C 161.554688 227.832031 161.105469 227.878906 160.371094 227.878906 C 158.351562 227.878906 154.164062 227.515625 150.847656 224.804688 Z M 147.070312 229.320312 C 147.015625 229.269531 147.007812 229.179688 147.0625 229.125 C 147.113281 229.066406 147.199219 229.0625 147.257812 229.113281 C 151.582031 233 151.902344 239.128906 151.902344 239.191406 C 151.90625 239.265625 151.847656 239.332031 151.769531 239.335938 C 151.769531 239.335938 151.765625 239.335938 151.765625 239.335938 C 151.691406 239.335938 151.628906 239.277344 151.625 239.203125 C 151.621094 239.140625 151.304688 233.125 147.070312 229.320312 Z M 138.804688 274.273438 C 140.066406 277.261719 139.878906 280.210938 138.386719 280.84375 C 138.367188 280.851562 138.351562 280.855469 138.332031 280.855469 C 138.277344 280.855469 138.226562 280.820312 138.203125 280.769531 C 138.171875 280.699219 138.207031 280.617188 138.277344 280.585938 C 139.628906 280.011719 139.75 277.230469 138.546875 274.378906 C 137.34375 271.53125 135.265625 269.679688 133.910156 270.25 C 133.839844 270.28125 133.757812 270.246094 133.726562 270.175781 C 133.699219 270.105469 133.730469 270.023438 133.800781 269.992188 C 135.296875 269.359375 137.539062 271.28125 138.804688 274.273438 Z M 141.46875 270.035156 C 141.453125 270.039062 141.441406 270.039062 141.425781 270.039062 C 141.367188 270.039062 141.3125 270 141.292969 269.941406 C 141.273438 269.867188 141.3125 269.789062 141.386719 269.765625 C 147.574219 267.871094 150.054688 261.257812 150.078125 261.191406 C 150.105469 261.121094 150.183594 261.082031 150.257812 261.109375 C 150.332031 261.136719 150.367188 261.214844 150.339844 261.289062 C 150.316406 261.355469 147.792969 268.097656 141.46875 270.035156 Z M 143.917969 275.507812 C 143.894531 275.519531 143.875 275.523438 143.851562 275.523438 C 143.800781 275.523438 143.753906 275.496094 143.726562 275.449219 C 143.691406 275.382812 143.71875 275.296875 143.785156 275.261719 C 149.558594 272.148438 156.082031 275.003906 156.148438 275.03125 C 156.21875 275.0625 156.25 275.148438 156.21875 275.21875 C 156.1875 275.289062 156.101562 275.320312 156.03125 275.289062 C 155.96875 275.257812 149.566406 272.457031 143.917969 275.507812 Z M 167.839844 296.238281 C 170.15625 290.441406 166.9375 284.5 166.90625 284.4375 C 166.867188 284.371094 166.894531 284.285156 166.960938 284.25 C 167.027344 284.210938 167.113281 284.234375 167.148438 284.304688 C 167.183594 284.363281 170.464844 290.421875 168.097656 296.339844 C 168.074219 296.394531 168.023438 296.429688 167.96875 296.429688 C 167.949219 296.429688 167.933594 296.425781 167.917969 296.417969 C 167.84375 296.390625 167.808594 296.308594 167.839844 296.238281 Z M 181.507812 288.996094 C 181.542969 289.066406 181.511719 289.148438 181.441406 289.183594 C 181.382812 289.210938 175.4375 292.035156 173.800781 297.921875 C 173.785156 297.984375 173.730469 298.027344 173.667969 298.027344 C 173.65625 298.027344 173.644531 298.023438 173.628906 298.019531 C 173.554688 298 173.511719 297.921875 173.535156 297.847656 C 175.203125 291.835938 181.261719 288.957031 181.324219 288.929688 C 181.394531 288.898438 181.476562 288.925781 181.507812 288.996094 Z M 174.058594 306.160156 C 174.039062 306.21875 173.984375 306.257812 173.925781 306.257812 C 173.914062 306.257812 173.898438 306.253906 173.882812 306.25 C 173.8125 306.226562 173.769531 306.144531 173.792969 306.074219 C 174.25 304.675781 172.230469 302.761719 169.289062 301.800781 C 166.351562 300.839844 163.589844 301.199219 163.136719 302.59375 C 163.109375 302.667969 163.03125 302.707031 162.960938 302.683594 C 162.886719 302.660156 162.847656 302.582031 162.871094 302.507812 C 163.382812 300.9375 166.238281 300.511719 169.375 301.535156 C 172.460938 302.542969 174.5625 304.617188 174.058594 306.160156 Z M 214.765625 284.9375 C 214.742188 284.988281 214.691406 285.015625 214.640625 285.015625 C 214.621094 285.015625 214.597656 285.011719 214.578125 285.003906 C 210.359375 282.929688 205.789062 283.660156 205.742188 283.667969 C 205.667969 283.679688 205.597656 283.628906 205.582031 283.554688 C 205.570312 283.476562 205.621094 283.40625 205.699219 283.390625 C 205.746094 283.386719 210.40625 282.640625 214.703125 284.75 C 214.769531 284.785156 214.800781 284.871094 214.765625 284.9375 Z M 218.722656 279.851562 C 218.773438 279.910156 218.769531 280 218.710938 280.050781 C 218.683594 280.074219 218.652344 280.085938 218.617188 280.085938 C 218.578125 280.085938 218.542969 280.070312 218.515625 280.039062 C 215.277344 276.410156 214.789062 271.609375 214.785156 271.5625 C 214.777344 271.484375 214.832031 271.417969 214.910156 271.410156 C 214.984375 271.40625 215.054688 271.460938 215.0625 271.535156 C 215.066406 271.582031 215.546875 276.292969 218.722656 279.851562 Z M 228.589844 284.164062 C 228.652344 284.210938 228.660156 284.300781 228.613281 284.363281 C 228.566406 284.421875 228.480469 284.433594 228.417969 284.386719 C 227.871094 283.964844 227 284.015625 225.96875 284.527344 C 224.910156 285.058594 223.816406 286.011719 222.894531 287.210938 C 221.007812 289.664062 220.421875 292.386719 221.585938 293.285156 C 221.648438 293.332031 221.660156 293.417969 221.613281 293.480469 C 221.585938 293.515625 221.542969 293.535156 221.5 293.535156 C 221.472656 293.535156 221.441406 293.523438 221.417969 293.503906 C 220.132812 292.515625 220.695312 289.617188 222.671875 287.042969 C 223.621094 285.808594 224.746094 284.824219 225.847656 284.277344 C 226.976562 283.714844 227.953125 283.675781 228.589844 284.164062 Z M 224.257812 241.300781 C 218.78125 243.359375 216.363281 249.113281 216.339844 249.171875 C 216.316406 249.226562 216.265625 249.257812 216.210938 249.257812 C 216.191406 249.257812 216.175781 249.253906 216.15625 249.246094 C 216.085938 249.21875 216.050781 249.136719 216.082031 249.066406 C 216.105469 249.007812 218.566406 243.140625 224.160156 241.039062 C 224.230469 241.011719 224.3125 241.050781 224.339844 241.121094 C 224.367188 241.195312 224.332031 241.273438 224.257812 241.300781 Z M 221.941406 235.589844 C 222.011719 235.5625 222.09375 235.601562 222.117188 235.675781 C 222.144531 235.746094 222.109375 235.828125 222.035156 235.851562 C 220.546875 236.390625 219.054688 236.589844 217.667969 236.589844 C 213.882812 236.589844 210.867188 235.121094 210.824219 235.101562 C 210.757812 235.066406 210.726562 234.984375 210.761719 234.914062 C 210.796875 234.84375 210.878906 234.816406 210.949219 234.851562 C 211.003906 234.878906 216.515625 237.558594 221.941406 235.589844 Z M 232.953125 241.023438 C 232.777344 241.089844 232.59375 241.121094 232.40625 241.121094 C 230.949219 241.121094 229.136719 239.242188 228.125 236.550781 C 227.578125 235.09375 227.339844 233.617188 227.453125 232.394531 C 227.570312 231.136719 228.050781 230.285156 228.804688 230 C 228.875 229.972656 228.957031 230.011719 228.984375 230.082031 C 229.007812 230.15625 228.972656 230.234375 228.902344 230.261719 C 228.253906 230.507812 227.835938 231.273438 227.730469 232.421875 C 227.621094 233.601562 227.851562 235.035156 228.386719 236.453125 C 229.476562 239.347656 231.480469 241.28125 232.855469 240.761719 C 232.925781 240.734375 233.007812 240.773438 233.035156 240.84375 C 233.0625 240.917969 233.023438 240.996094 232.953125 241.023438 Z M 201.304688 226.144531 C 201.269531 226.085938 197.761719 220.453125 199.527344 214.527344 C 199.550781 214.453125 199.628906 214.410156 199.699219 214.433594 C 199.773438 214.453125 199.816406 214.53125 199.792969 214.605469 C 198.066406 220.410156 201.507812 225.9375 201.542969 225.992188 C 201.582031 226.058594 201.5625 226.144531 201.5 226.1875 C 201.476562 226.203125 201.449219 226.207031 201.421875 226.207031 C 201.378906 226.207031 201.332031 226.183594 201.304688 226.144531 Z M 186.691406 222.324219 C 186.652344 222.257812 186.679688 222.171875 186.746094 222.136719 C 186.804688 222.105469 192.785156 218.804688 193.914062 212.605469 C 193.925781 212.53125 194 212.480469 194.074219 212.496094 C 194.152344 212.507812 194.199219 212.582031 194.1875 212.65625 C 193.035156 218.988281 186.941406 222.347656 186.878906 222.382812 C 186.859375 222.394531 186.835938 222.398438 186.8125 222.398438 C 186.761719 222.398438 186.714844 222.371094 186.691406 222.324219 Z M 193.09375 204.742188 C 193.109375 204.667969 193.1875 204.625 193.261719 204.644531 C 193.335938 204.664062 193.382812 204.738281 193.363281 204.8125 C 193.1875 205.484375 193.574219 206.265625 194.445312 207.015625 C 195.347656 207.789062 196.652344 208.425781 198.117188 208.808594 C 201.105469 209.585938 203.839844 209.066406 204.210938 207.644531 C 204.230469 207.570312 204.304688 207.523438 204.382812 207.542969 C 204.457031 207.5625 204.5 207.640625 204.480469 207.714844 C 204.195312 208.8125 202.699219 209.441406 200.75 209.441406 C 199.914062 209.441406 198.992188 209.324219 198.046875 209.078125 C 196.539062 208.683594 195.199219 208.027344 194.265625 207.226562 C 193.304688 206.40625 192.890625 205.523438 193.09375 204.742188 Z M 226.28125 254.964844 C 226.28125 254.710938 226.28125 254.457031 226.277344 254.207031 C 226.273438 254.128906 226.335938 254.066406 226.414062 254.066406 C 226.496094 254.054688 226.554688 254.125 226.554688 254.203125 C 226.558594 254.457031 226.5625 254.710938 226.5625 254.964844 C 226.5625 259.621094 225.835938 264.210938 224.410156 268.597656 C 224.390625 268.65625 224.335938 268.695312 224.277344 268.695312 C 224.261719 268.695312 224.246094 268.691406 224.234375 268.6875 C 224.160156 268.664062 224.121094 268.585938 224.144531 268.511719 C 225.5625 264.152344 226.28125 259.59375 226.28125 254.964844 Z M 208.398438 219.6875 C 208.335938 219.644531 208.324219 219.554688 208.367188 219.492188 C 208.414062 219.433594 208.5 219.417969 208.5625 219.464844 C 212.390625 222.269531 215.722656 225.652344 218.464844 229.523438 C 218.511719 229.585938 218.496094 229.671875 218.433594 229.71875 C 218.410156 229.734375 218.382812 229.742188 218.351562 229.742188 C 218.308594 229.742188 218.265625 229.722656 218.238281 229.683594 C 215.511719 225.839844 212.199219 222.476562 208.398438 219.6875 Z M 159.296875 217.847656 C 159.257812 217.78125 159.277344 217.695312 159.34375 217.65625 C 163.675781 214.941406 168.40625 213.023438 173.394531 211.957031 C 173.46875 211.941406 173.542969 211.988281 173.558594 212.0625 C 173.574219 212.140625 173.527344 212.214844 173.453125 212.230469 C 168.496094 213.289062 163.796875 215.195312 159.492188 217.894531 C 159.46875 217.90625 159.441406 217.914062 159.417969 217.914062 C 159.371094 217.914062 159.324219 217.890625 159.296875 217.847656 Z M 140.828125 242.277344 C 139.585938 246.375 138.957031 250.640625 138.957031 254.964844 C 138.957031 255.71875 138.976562 256.476562 139.015625 257.21875 C 139.019531 257.296875 138.960938 257.363281 138.882812 257.367188 C 138.878906 257.367188 138.878906 257.367188 138.875 257.367188 C 138.800781 257.367188 138.742188 257.308594 138.738281 257.234375 C 138.699219 256.484375 138.679688 255.722656 138.679688 254.964844 C 138.679688 250.613281 139.3125 246.320312 140.558594 242.199219 C 140.582031 242.125 140.660156 242.082031 140.734375 242.105469 C 140.808594 242.125 140.847656 242.203125 140.828125 242.277344 Z M 159.28125 292.070312 C 159.257812 292.109375 159.210938 292.132812 159.164062 292.132812 C 159.140625 292.132812 159.113281 292.125 159.089844 292.113281 C 154.921875 289.460938 151.25 286.152344 148.175781 282.273438 C 148.128906 282.214844 148.140625 282.125 148.199219 282.078125 C 148.257812 282.03125 148.347656 282.039062 148.394531 282.101562 C 151.449219 285.953125 155.097656 289.242188 159.238281 291.875 C 159.304688 291.917969 159.324219 292.003906 159.28125 292.070312 Z M 206.460938 291.746094 C 206.503906 291.8125 206.484375 291.898438 206.421875 291.9375 C 202.179688 294.679688 197.546875 296.648438 192.648438 297.792969 C 192.636719 297.792969 192.628906 297.796875 192.617188 297.796875 C 192.554688 297.796875 192.496094 297.75 192.480469 297.6875 C 192.464844 297.613281 192.511719 297.539062 192.585938 297.519531 C 197.453125 296.382812 202.058594 294.425781 206.269531 291.703125 C 206.332031 291.664062 206.421875 291.679688 206.460938 291.746094 Z M 161.707031 230.242188 C 161.695312 230.292969 160.214844 235.324219 154.390625 238.453125 C 154.371094 238.464844 154.347656 238.46875 154.324219 238.46875 C 154.277344 238.46875 154.226562 238.441406 154.203125 238.394531 C 154.164062 238.328125 154.191406 238.242188 154.257812 238.207031 C 159.972656 235.136719 161.425781 230.214844 161.4375 230.164062 C 161.460938 230.089844 161.535156 230.046875 161.613281 230.070312 C 161.6875 230.089844 161.730469 230.167969 161.707031 230.242188 Z M 156.242188 274.109375 C 156.769531 268.824219 154.476562 265.6875 154.453125 265.65625 C 154.40625 265.59375 154.417969 265.503906 154.480469 265.460938 C 154.542969 265.414062 154.628906 265.425781 154.675781 265.488281 C 154.699219 265.519531 157.054688 268.738281 156.519531 274.136719 C 156.515625 274.210938 156.453125 274.261719 156.382812 274.261719 C 156.378906 274.261719 156.375 274.261719 156.367188 274.261719 C 156.292969 274.253906 156.234375 274.1875 156.242188 274.109375 Z M 180.429688 287.554688 C 180.488281 287.605469 180.496094 287.691406 180.449219 287.75 C 180.421875 287.785156 180.378906 287.800781 180.339844 287.800781 C 180.308594 287.800781 180.277344 287.789062 180.25 287.765625 C 174.210938 282.660156 169.40625 283.914062 169.355469 283.925781 C 169.28125 283.945312 169.207031 283.902344 169.183594 283.828125 C 169.164062 283.753906 169.207031 283.675781 169.28125 283.65625 C 169.332031 283.644531 174.269531 282.34375 180.429688 287.554688 Z M 210.320312 237.808594 C 210.320312 237.871094 210.246094 244.050781 214.542969 247.722656 C 214.601562 247.773438 214.609375 247.859375 214.558594 247.917969 C 214.53125 247.953125 214.492188 247.96875 214.453125 247.96875 C 214.421875 247.96875 214.390625 247.957031 214.363281 247.933594 C 209.964844 244.175781 210.039062 237.867188 210.042969 237.804688 C 210.042969 237.726562 210.109375 237.671875 210.183594 237.667969 C 210.261719 237.667969 210.320312 237.730469 210.320312 237.808594 Z M 205.820312 281.085938 C 207.824219 274.140625 212.519531 272.304688 212.566406 272.285156 C 212.640625 272.257812 212.71875 272.296875 212.746094 272.367188 C 212.773438 272.441406 212.738281 272.519531 212.664062 272.546875 C 212.621094 272.566406 208.050781 274.359375 206.089844 281.164062 C 206.070312 281.222656 206.015625 281.265625 205.953125 281.265625 C 205.941406 281.265625 205.929688 281.261719 205.914062 281.257812 C 205.839844 281.238281 205.800781 281.160156 205.820312 281.085938 Z M 199.339844 226.621094 C 199.417969 226.613281 199.484375 226.675781 199.488281 226.753906 C 199.492188 226.828125 199.433594 226.894531 199.359375 226.902344 C 198.804688 226.933594 198.269531 226.949219 197.761719 226.949219 C 190.734375 226.949219 188.09375 223.941406 187.976562 223.804688 C 187.929688 223.746094 187.933594 223.65625 187.992188 223.609375 C 188.050781 223.558594 188.140625 223.566406 188.191406 223.625 C 188.21875 223.660156 191.269531 227.113281 199.339844 226.621094 Z M 199.339844 226.621094 " fill-opacity="1" fill-rule="nonzero"/><g mask="url(#198e4d0530)"><g transform="matrix(1, 0, 0, 1, 144, 214)"><g clip-path="url(#3907c25efa)"><g clip-path="url(#aa042333c1)"><path fill="#2b3044" d="M 68.941406 42.746094 C 68.929688 44.328125 67.96875 46.429688 66.625 47.296875 C 58.144531 50.632812 66.632812 34.882812 68.941406 42.746094 Z M 56.226562 38.070312 C 53.40625 41.960938 45.867188 49.203125 50.304688 53.246094 C 52.625 55.355469 60.929688 60.320312 61.125 54.867188 C 61.316406 49.671875 65.628906 36.027344 56.226562 38.070312 Z M 73.425781 45.976562 C 71.667969 44.382812 69.332031 48.113281 70.601562 49.515625 C 72.585938 51.144531 74.730469 47.542969 73.425781 45.976562 Z M 68.375 53.039062 C 67.394531 52.03125 65.566406 53.019531 65.972656 54.398438 C 66.648438 56.613281 69.984375 54.757812 68.375 53.039062 Z M 48.609375 61.339844 C 50.527344 54.914062 37.390625 59.957031 40.703125 64.289062 C 43.324219 65.757812 47 63.484375 48.609375 61.339844 Z M 21.136719 59.792969 C 20.023438 56.976562 15.210938 60.878906 17.113281 62.839844 C 18.9375 64.378906 22.484375 62.046875 21.136719 59.792969 Z M 37.863281 56.617188 C 36.316406 52.726562 26.042969 57.023438 28.328125 61.179688 C 30.703125 63.261719 40.109375 60.402344 37.863281 56.617188 Z M 30.46875 27.539062 C 25.253906 15.292969 16.125 26.304688 14.160156 34.410156 C 10.230469 44.628906 25.136719 51.070312 26.367188 38.820312 C 26.691406 34.609375 32.023438 32.117188 30.46875 27.539062 Z M 7.738281 33.65625 C 5.613281 33.253906 4.886719 37.320312 6.089844 38.515625 C 8.800781 40.222656 10.050781 34.492188 7.738281 33.65625 Z M 3.503906 39.738281 C 0.226562 37.234375 1.039062 44.0625 0.203125 45.867188 C 1.855469 52.496094 6.335938 42.125 3.503906 39.738281 Z M 7.375 29.980469 C 8.730469 28.386719 6.691406 25.746094 5.214844 27.730469 C 3.890625 29.359375 5.875 31.9375 7.375 29.980469 Z M 49.757812 28.421875 C 55.300781 30.996094 54.128906 18.941406 49.046875 21.152344 C 47.199219 22.941406 47.703125 26.902344 49.757812 28.421875 Z M 60.082031 30.976562 C 65.488281 28.742188 57.820312 12.59375 54.066406 17.757812 C 54.59375 21.878906 54.667969 30.789062 60.082031 30.976562 Z M 39.867188 2.066406 C 39.882812 0.109375 36.667969 -0.0273438 35.351562 0.570312 C 31.480469 3.929688 41.03125 6.960938 39.867188 2.066406 Z M 26.769531 7.640625 C 28.128906 8.460938 31.242188 9.785156 32.070312 7.722656 C 32.804688 4.207031 23.679688 4.015625 26.769531 7.640625 Z M 41.558594 19.390625 C 42.527344 21.996094 45.597656 19.71875 44.3125 17.675781 C 43.257812 16.019531 40.484375 17.613281 41.558594 19.390625 Z M 18.046875 9.292969 C 19.554688 10.4375 22.351562 7.644531 20.375 6.441406 C 18.804688 5.539062 16.4375 7.980469 18.046875 9.292969 Z M 67.492188 17.332031 C 70.332031 14.980469 64.90625 11.398438 62.664062 11.335938 C 59.460938 13.191406 65.128906 18.335938 67.492188 17.332031 Z M 51.792969 72.539062 C 49.183594 72.535156 45.816406 73.449219 44.246094 75.609375 C 40.261719 83.230469 60.25 76.105469 51.792969 72.539062 Z M 33.84375 63.179688 C 32.046875 63.179688 32.042969 65.972656 33.84375 65.972656 C 35.636719 65.972656 35.640625 63.179688 33.84375 63.179688 Z M 33.84375 63.179688 " fill-opacity="1" fill-rule="nonzero"/></g></g></g></g></svg>