<svg xmlns="http://www.w3.org/2000/svg" xmlns:xlink="http://www.w3.org/1999/xlink" width="500" zoomAndPan="magnify" viewBox="0 0 375 64.499998" height="86" preserveAspectRatio="xMidYMid meet" version="1.0"><defs><filter x="0%" y="0%" width="100%" height="100%" id="66fcb08ce2"><feColorMatrix values="0 0 0 0 1 0 0 0 0 1 0 0 0 0 1 0 0 0 1 0" color-interpolation-filters="sRGB"/></filter><clipPath id="f6b4bf4ee1"><path d="M 3 3 L 373.558594 3 L 373.558594 62 L 3 62 Z M 3 3 " clip-rule="nonzero"/></clipPath><mask id="7a0481ec24"><g filter="url(#66fcb08ce2)"><rect x="-37.5" width="450" fill="#000000" y="-6.45" height="77.399998" fill-opacity="0.2863"/></g></mask><clipPath id="fab08386e3"><path d="M 0.347656 0.199219 L 370.558594 0.199219 L 370.558594 57.507812 L 0.347656 57.507812 Z M 0.347656 0.199219 " clip-rule="nonzero"/></clipPath><clipPath id="ded040eeaa"><rect x="0" width="371" y="0" height="59"/></clipPath></defs><g clip-path="url(#f6b4bf4ee1)"><g mask="url(#7a0481ec24)"><g transform="matrix(1, 0, 0, 1, 3, 3)"><g clip-path="url(#ded040eeaa)"><g clip-path="url(#fab08386e3)"><path fill="#031819" d="M 314.625 50.425781 L 307.609375 43.445312 L 384.988281 43.445312 C 385.363281 45.179688 386.910156 46.480469 388.769531 46.480469 C 390.902344 46.480469 392.628906 44.757812 392.628906 42.632812 C 392.628906 40.515625 390.902344 38.792969 388.769531 38.792969 C 386.910156 38.792969 385.363281 40.09375 384.988281 41.828125 L 305.988281 41.828125 L 285.371094 21.320312 L 284.796875 21.085938 L 222.46875 21.085938 L 222.066406 21.195312 L 199.613281 34.089844 L 160.003906 34.089844 L 109.121094 4.851562 L 150.292969 4.851562 L 177.976562 20.757812 C 177.859375 21.132812 177.789062 21.53125 177.789062 21.9375 C 177.789062 24.058594 179.523438 25.777344 181.648438 25.777344 C 183.785156 25.777344 185.519531 24.058594 185.519531 21.9375 C 185.519531 19.8125 183.785156 18.09375 181.648438 18.09375 C 180.519531 18.09375 179.492188 18.585938 178.785156 19.359375 L 150.914062 3.347656 L 150.511719 3.238281 L 8.015625 3.238281 C 7.636719 1.503906 6.09375 0.199219 4.234375 0.199219 C 2.097656 0.199219 0.375 1.917969 0.375 4.042969 C 0.375 6.164062 2.097656 7.882812 4.234375 7.882812 C 6.09375 7.882812 7.636719 6.585938 8.015625 4.851562 L 105.882812 4.851562 L 129.917969 18.664062 L 42.398438 18.664062 C 42.023438 16.929688 40.476562 15.628906 38.617188 15.628906 C 36.484375 15.628906 34.757812 17.351562 34.757812 19.46875 C 34.757812 21.59375 36.484375 23.316406 38.617188 23.316406 C 40.46875 23.316406 42.023438 22.015625 42.398438 20.28125 L 132.734375 20.28125 L 159.386719 35.597656 L 159.792969 35.707031 L 196.800781 35.707031 L 176.300781 47.488281 L 96.71875 47.488281 C 96.34375 45.757812 94.796875 44.453125 92.9375 44.453125 C 90.804688 44.453125 89.078125 46.167969 89.078125 48.292969 C 89.078125 50.417969 90.804688 52.132812 92.9375 52.132812 C 94.796875 52.132812 96.34375 50.839844 96.71875 49.105469 L 176.511719 49.105469 L 176.917969 48.996094 L 200.226562 35.597656 L 209.046875 30.53125 L 249.855469 30.53125 L 226.171875 44.140625 C 225.464844 43.359375 224.445312 42.875 223.308594 42.875 C 221.171875 42.875 219.449219 44.59375 219.449219 46.714844 C 219.449219 48.839844 221.171875 50.558594 223.308594 50.558594 C 225.441406 50.558594 227.167969 48.839844 227.167969 46.714844 C 227.167969 46.300781 227.105469 45.902344 226.988281 45.539062 L 253.09375 30.53125 L 292.335938 30.53125 L 313.472656 51.566406 C 313.085938 52.164062 312.859375 52.882812 312.859375 53.65625 C 312.859375 55.773438 314.585938 57.5 316.71875 57.5 C 318.851562 57.5 320.578125 55.773438 320.578125 53.65625 C 320.578125 51.535156 318.851562 49.808594 316.71875 49.808594 C 315.941406 49.808594 315.226562 50.035156 314.625 50.425781 Z M 211.863281 28.914062 L 222.679688 22.699219 L 284.460938 22.699219 L 290.710938 28.914062 Z M 211.863281 28.914062 " fill-opacity="1" fill-rule="nonzero"/></g></g></g></g></g></svg>