<svg xmlns="http://www.w3.org/2000/svg" xmlns:xlink="http://www.w3.org/1999/xlink" width="250" zoomAndPan="magnify" viewBox="0 0 187.5 30.000001" height="40" preserveAspectRatio="xMidYMid meet" version="1.0"><defs><filter x="0%" y="0%" width="100%" height="100%" id="c306ed1f4e"><feColorMatrix values="0 0 0 0 1 0 0 0 0 1 0 0 0 0 1 0 0 0 1 0" color-interpolation-filters="sRGB"/></filter><mask id="ed9a022bb8"><g filter="url(#c306ed1f4e)"><rect x="-18.75" width="225" fill="#000000" y="-3" height="36.000001" fill-opacity="0.2863"/></g></mask><clipPath id="8d139ae18c"><path d="M 0.480469 0 L 180.945312 0 L 180.945312 26.199219 L 0.480469 26.199219 Z M 0.480469 0 " clip-rule="nonzero"/></clipPath><clipPath id="5b1f187a6a"><rect x="0" width="181" y="0" height="27"/></clipPath></defs><g mask="url(#ed9a022bb8)"><g transform="matrix(1, 0, 0, 1, 3, 0.000000000000005692)"><g clip-path="url(#5b1f187a6a)"><g clip-path="url(#8d139ae18c)"><path fill="#000000" d="M 36.46875 22.960938 L 39.691406 19.769531 L 4.136719 19.769531 C 3.964844 20.5625 3.253906 21.160156 2.398438 21.160156 C 1.417969 21.160156 0.625 20.371094 0.625 19.398438 C 0.625 18.433594 1.417969 17.644531 2.398438 17.644531 C 3.253906 17.644531 3.964844 18.238281 4.136719 19.03125 L 40.441406 19.03125 L 49.914062 9.65625 L 50.175781 9.546875 L 78.816406 9.546875 L 79 9.597656 L 89.320312 15.496094 L 107.519531 15.496094 L 130.902344 2.128906 L 111.984375 2.128906 L 99.261719 9.398438 C 99.316406 9.570312 99.347656 9.75 99.347656 9.9375 C 99.347656 10.90625 98.550781 11.691406 97.574219 11.691406 C 96.59375 11.691406 95.796875 10.90625 95.796875 9.9375 C 95.796875 8.964844 96.59375 8.179688 97.574219 8.179688 C 98.09375 8.179688 98.566406 8.40625 98.890625 8.757812 L 111.699219 1.4375 L 111.882812 1.386719 L 177.363281 1.386719 C 177.535156 0.597656 178.246094 0 179.101562 0 C 180.082031 0 180.875 0.785156 180.875 1.757812 C 180.875 2.726562 180.082031 3.511719 179.101562 3.511719 C 178.246094 3.511719 177.535156 2.917969 177.363281 2.128906 L 132.390625 2.128906 L 121.34375 8.441406 L 161.5625 8.441406 C 161.734375 7.648438 162.445312 7.054688 163.300781 7.054688 C 164.28125 7.054688 165.074219 7.839844 165.074219 8.808594 C 165.074219 9.78125 164.28125 10.570312 163.300781 10.570312 C 162.449219 10.570312 161.734375 9.972656 161.5625 9.179688 L 120.050781 9.179688 L 107.804688 16.183594 L 107.617188 16.234375 L 90.613281 16.234375 L 100.03125 21.621094 L 136.601562 21.621094 C 136.773438 20.828125 137.484375 20.230469 138.339844 20.230469 C 139.320312 20.230469 140.113281 21.015625 140.113281 21.988281 C 140.113281 22.957031 139.320312 23.742188 138.339844 23.742188 C 137.484375 23.742188 136.773438 23.152344 136.601562 22.359375 L 99.933594 22.359375 L 99.746094 22.308594 L 89.039062 16.183594 L 84.984375 13.867188 L 66.234375 13.867188 L 77.117188 20.089844 C 77.441406 19.730469 77.910156 19.511719 78.433594 19.511719 C 79.414062 19.511719 80.207031 20.296875 80.207031 21.265625 C 80.207031 22.238281 79.414062 23.023438 78.433594 23.023438 C 77.453125 23.023438 76.660156 22.238281 76.660156 21.265625 C 76.660156 21.078125 76.6875 20.894531 76.742188 20.726562 L 64.742188 13.867188 L 46.710938 13.867188 L 37 23.484375 C 37.175781 23.757812 37.28125 24.085938 37.28125 24.4375 C 37.28125 25.40625 36.488281 26.195312 35.507812 26.195312 C 34.527344 26.195312 33.734375 25.40625 33.734375 24.4375 C 33.734375 23.46875 34.527344 22.679688 35.507812 22.679688 C 35.863281 22.679688 36.191406 22.78125 36.46875 22.960938 Z M 83.691406 13.128906 L 78.71875 10.285156 L 50.332031 10.285156 L 47.457031 13.128906 Z M 83.691406 13.128906 " fill-opacity="1" fill-rule="nonzero"/></g></g></g></g></svg>