<svg xmlns="http://www.w3.org/2000/svg" xmlns:xlink="http://www.w3.org/1999/xlink" width="250" zoomAndPan="magnify" viewBox="0 0 187.5 30.000001" height="40" preserveAspectRatio="xMidYMid meet" version="1.0"><defs><filter x="0%" y="0%" width="100%" height="100%" id="907e481b29"><feColorMatrix values="0 0 0 0 1 0 0 0 0 1 0 0 0 0 1 0 0 0 1 0" color-interpolation-filters="sRGB"/></filter><mask id="6563e3c2a3"><g filter="url(#907e481b29)"><rect x="-18.75" width="225" fill="#000000" y="-3" height="36.000001" fill-opacity="0.2863"/></g></mask><clipPath id="3541780bcf"><path d="M 0.480469 0 L 180.945312 0 L 180.945312 26.199219 L 0.480469 26.199219 Z M 0.480469 0 " clip-rule="nonzero"/></clipPath><clipPath id="e860fe0f77"><rect x="0" width="181" y="0" height="27"/></clipPath></defs><g mask="url(#6563e3c2a3)"><g transform="matrix(1, 0, 0, 1, 3, 0.000000000000005692)"><g clip-path="url(#e860fe0f77)"><g clip-path="url(#3541780bcf)"><path fill="#000000" d="M 145.03125 22.960938 L 141.808594 19.769531 L 177.363281 19.769531 C 177.535156 20.5625 178.246094 21.160156 179.101562 21.160156 C 180.082031 21.160156 180.875 20.371094 180.875 19.398438 C 180.875 18.433594 180.082031 17.644531 179.101562 17.644531 C 178.246094 17.644531 177.535156 18.238281 177.363281 19.03125 L 141.058594 19.03125 L 131.585938 9.65625 L 131.324219 9.546875 L 102.683594 9.546875 L 102.5 9.597656 L 92.179688 15.496094 L 73.980469 15.496094 L 50.597656 2.128906 L 69.515625 2.128906 L 82.238281 9.398438 C 82.183594 9.570312 82.152344 9.75 82.152344 9.9375 C 82.152344 10.90625 82.949219 11.691406 83.925781 11.691406 C 84.90625 11.691406 85.703125 10.90625 85.703125 9.9375 C 85.703125 8.964844 84.90625 8.179688 83.925781 8.179688 C 83.40625 8.179688 82.933594 8.40625 82.609375 8.757812 L 69.800781 1.4375 L 69.617188 1.386719 L 4.136719 1.386719 C 3.964844 0.597656 3.253906 0 2.398438 0 C 1.417969 0 0.625 0.785156 0.625 1.757812 C 0.625 2.726562 1.417969 3.511719 2.398438 3.511719 C 3.253906 3.511719 3.964844 2.917969 4.136719 2.128906 L 49.109375 2.128906 L 60.15625 8.441406 L 19.9375 8.441406 C 19.765625 7.648438 19.054688 7.054688 18.199219 7.054688 C 17.21875 7.054688 16.425781 7.839844 16.425781 8.808594 C 16.425781 9.78125 17.21875 10.570312 18.199219 10.570312 C 19.050781 10.570312 19.765625 9.972656 19.9375 9.179688 L 61.449219 9.179688 L 73.695312 16.183594 L 73.882812 16.234375 L 90.886719 16.234375 L 81.46875 21.621094 L 44.898438 21.621094 C 44.726562 20.828125 44.015625 20.230469 43.160156 20.230469 C 42.179688 20.230469 41.386719 21.015625 41.386719 21.988281 C 41.386719 22.957031 42.179688 23.742188 43.160156 23.742188 C 44.015625 23.742188 44.726562 23.152344 44.898438 22.359375 L 81.566406 22.359375 L 81.753906 22.308594 L 92.460938 16.183594 L 96.515625 13.867188 L 115.265625 13.867188 L 104.382812 20.089844 C 104.058594 19.730469 103.589844 19.511719 103.066406 19.511719 C 102.085938 19.511719 101.292969 20.296875 101.292969 21.265625 C 101.292969 22.238281 102.085938 23.023438 103.066406 23.023438 C 104.046875 23.023438 104.839844 22.238281 104.839844 21.265625 C 104.839844 21.078125 104.8125 20.894531 104.757812 20.726562 L 116.757812 13.867188 L 134.789062 13.867188 L 144.5 23.484375 C 144.324219 23.757812 144.21875 24.085938 144.21875 24.4375 C 144.21875 25.40625 145.011719 26.195312 145.992188 26.195312 C 146.972656 26.195312 147.765625 25.40625 147.765625 24.4375 C 147.765625 23.46875 146.972656 22.679688 145.992188 22.679688 C 145.636719 22.679688 145.308594 22.78125 145.03125 22.960938 Z M 97.808594 13.128906 L 102.78125 10.285156 L 131.167969 10.285156 L 134.042969 13.128906 Z M 97.808594 13.128906 " fill-opacity="1" fill-rule="nonzero"/></g></g></g></g></svg>